<mxfile host="app.diagrams.net" modified="2022-12-13T14:20:50.076Z" agent="5.0 (Macintosh; Intel Mac OS X 10_15_7) AppleWebKit/537.36 (KHTML, like Gecko) Chrome/108.0.0.0 Safari/537.36" etag="tYL-FAkr3elE2xU3r3nO" version="20.6.2" type="github" pages="2">
  <diagram id="X7UfOUh_WQknSX4uwnFy" name="ASIS">
    <mxGraphModel dx="2486" dy="430" grid="1" gridSize="10" guides="1" tooltips="1" connect="1" arrows="1" fold="1" page="1" pageScale="1" pageWidth="850" pageHeight="1100" math="0" shadow="0">
      <root>
        <mxCell id="0" />
        <mxCell id="1" parent="0" />
        <mxCell id="cpVLUIQBvUUd7k2zSbie-1" value="INTRANET" style="rounded=1;whiteSpace=wrap;html=1;strokeWidth=0;gradientDirection=south;verticalAlign=top;strokeColor=default;" parent="1" vertex="1">
          <mxGeometry x="-730" y="1284" width="1860" height="860" as="geometry" />
        </mxCell>
        <mxCell id="cpVLUIQBvUUd7k2zSbie-3" value="" style="rounded=1;whiteSpace=wrap;html=1;strokeColor=default;strokeWidth=1;fontColor=#081856;fillColor=#FFFFFF;gradientColor=none;gradientDirection=south;" parent="1" vertex="1">
          <mxGeometry x="-670" y="1480" width="1245" height="620" as="geometry" />
        </mxCell>
        <mxCell id="d_LiT2keymrr6b--2Nm0-60" value="" style="rounded=0;whiteSpace=wrap;html=1;strokeColor=#FFD966;strokeWidth=3;fontColor=#081856;fillColor=none;gradientColor=none;gradientDirection=south;" parent="1" vertex="1">
          <mxGeometry x="-750" y="1816" width="1930" height="302.7" as="geometry" />
        </mxCell>
        <mxCell id="cpVLUIQBvUUd7k2zSbie-2" value="" style="rounded=0;whiteSpace=wrap;html=1;strokeColor=#FFD966;strokeWidth=3;fontColor=#081856;fillColor=none;gradientColor=none;gradientDirection=south;" parent="1" vertex="1">
          <mxGeometry x="-750" y="1330" width="1930" height="480" as="geometry" />
        </mxCell>
        <mxCell id="cpVLUIQBvUUd7k2zSbie-4" value="" style="rounded=1;whiteSpace=wrap;html=1;strokeColor=#081856;strokeWidth=1;fontColor=#081856;fillColor=none;gradientColor=none;gradientDirection=south;" parent="1" vertex="1">
          <mxGeometry x="10" y="1520" width="1000" height="230" as="geometry" />
        </mxCell>
        <mxCell id="cpVLUIQBvUUd7k2zSbie-5" value="Microbat operaciones" style="sketch=0;aspect=fixed;html=1;points=[];align=center;image;fontSize=12;image=img/lib/mscae/VirtualMachineWindows.svg;strokeColor=#081856;strokeWidth=2;fillColor=#081856;gradientColor=#081856;" parent="1" vertex="1">
          <mxGeometry x="-290" y="1596.76" width="82.61" height="76" as="geometry" />
        </mxCell>
        <mxCell id="cpVLUIQBvUUd7k2zSbie-6" value="DMZ" style="rounded=1;whiteSpace=wrap;html=1;strokeColor=#36393d;strokeWidth=1;fillColor=#cce5ff;gradientDirection=south;verticalAlign=top;" parent="1" vertex="1">
          <mxGeometry x="-730" y="1055" width="1860" height="225" as="geometry" />
        </mxCell>
        <mxCell id="cpVLUIQBvUUd7k2zSbie-7" value="" style="rounded=1;whiteSpace=wrap;html=1;strokeColor=#FFD966;strokeWidth=3;fontColor=#081856;fillColor=#FFFFFF;gradientColor=none;gradientDirection=south;" parent="1" vertex="1">
          <mxGeometry x="-711" y="1089" width="1780" height="125" as="geometry" />
        </mxCell>
        <mxCell id="cpVLUIQBvUUd7k2zSbie-8" value="INTERNET" style="rounded=1;whiteSpace=wrap;html=1;strokeColor=#36393d;strokeWidth=1;fillColor=#cce5ff;gradientDirection=south;verticalAlign=top;" parent="1" vertex="1">
          <mxGeometry x="-730" y="710" width="1860" height="320" as="geometry" />
        </mxCell>
        <mxCell id="cpVLUIQBvUUd7k2zSbie-9" value="" style="rounded=1;whiteSpace=wrap;html=1;strokeColor=default;strokeWidth=1;fontColor=#081856;fillColor=#FFFFFF;gradientColor=none;gradientDirection=south;" parent="1" vertex="1">
          <mxGeometry x="-635" y="1825.7" width="875" height="224.3" as="geometry" />
        </mxCell>
        <mxCell id="cpVLUIQBvUUd7k2zSbie-10" value="" style="rounded=1;whiteSpace=wrap;html=1;strokeColor=#36393d;strokeWidth=1;fillColor=#cce5ff;gradientDirection=south;" parent="1" vertex="1">
          <mxGeometry x="45" y="1574.7" width="501" height="160" as="geometry" />
        </mxCell>
        <mxCell id="cpVLUIQBvUUd7k2zSbie-11" value="" style="rounded=1;whiteSpace=wrap;html=1;strokeColor=#36393d;strokeWidth=1;fillColor=#cce5ff;gradientDirection=south;" parent="1" vertex="1">
          <mxGeometry x="600" y="1574.7" width="400" height="160" as="geometry" />
        </mxCell>
        <mxCell id="cpVLUIQBvUUd7k2zSbie-12" value="" style="rounded=1;whiteSpace=wrap;html=1;strokeColor=#FFD966;strokeWidth=3;fontColor=#081856;fillColor=#FFFFFF;gradientColor=none;gradientDirection=south;" parent="1" vertex="1">
          <mxGeometry x="-710" y="749" width="1779" height="130" as="geometry" />
        </mxCell>
        <mxCell id="cpVLUIQBvUUd7k2zSbie-13" value="" style="rounded=1;whiteSpace=wrap;html=1;strokeColor=#FFD966;strokeWidth=3;fontColor=#081856;fillColor=#FFFFFF;gradientColor=none;gradientDirection=south;" parent="1" vertex="1">
          <mxGeometry x="-710" y="889" width="1780" height="130" as="geometry" />
        </mxCell>
        <mxCell id="cpVLUIQBvUUd7k2zSbie-14" value="" style="rounded=1;whiteSpace=wrap;html=1;strokeWidth=0;fillColor=#fad7ac;strokeColor=#b46504;" parent="1" vertex="1">
          <mxGeometry x="460" y="230" width="270" height="160" as="geometry" />
        </mxCell>
        <mxCell id="cpVLUIQBvUUd7k2zSbie-15" value="" style="rounded=1;whiteSpace=wrap;html=1;strokeWidth=0;fillColor=#b0e3e6;strokeColor=#0e8088;" parent="1" vertex="1">
          <mxGeometry x="460" y="155" width="270" height="60" as="geometry" />
        </mxCell>
        <mxCell id="cpVLUIQBvUUd7k2zSbie-16" value="" style="ellipse;html=1;strokeWidth=4;fillColor=#808080;strokeColor=default;shadow=0;fontSize=10;align=center;fontStyle=0;whiteSpace=wrap;spacing=10;" parent="1" vertex="1">
          <mxGeometry x="170" y="60" width="250" height="250" as="geometry" />
        </mxCell>
        <mxCell id="cpVLUIQBvUUd7k2zSbie-17" value="" style="ellipse;html=1;strokeWidth=4;fillColor=#CCCCCC;strokeColor=#FFFFFF;shadow=0;fontSize=10;align=center;fontStyle=0;whiteSpace=wrap;spacing=10;" parent="1" vertex="1">
          <mxGeometry x="220" y="110" width="150" height="150" as="geometry" />
        </mxCell>
        <mxCell id="cpVLUIQBvUUd7k2zSbie-18" value="" style="edgeStyle=orthogonalEdgeStyle;rounded=0;orthogonalLoop=1;jettySize=auto;html=1;strokeWidth=3;entryX=0;entryY=0.5;entryDx=0;entryDy=0;" parent="1" source="cpVLUIQBvUUd7k2zSbie-19" target="cpVLUIQBvUUd7k2zSbie-23" edge="1">
          <mxGeometry relative="1" as="geometry">
            <mxPoint x="460" y="172.5" as="targetPoint" />
          </mxGeometry>
        </mxCell>
        <mxCell id="cpVLUIQBvUUd7k2zSbie-19" value="" style="ellipse;html=1;strokeWidth=4;fillColor=#00FF00;strokeColor=#ffffff;shadow=0;fontSize=10;fontColor=#FFFFFF;align=center;fontStyle=0;whiteSpace=wrap;spacing=10;" parent="1" vertex="1">
          <mxGeometry x="270" y="160" width="50" height="50" as="geometry" />
        </mxCell>
        <mxCell id="cpVLUIQBvUUd7k2zSbie-20" style="edgeStyle=orthogonalEdgeStyle;rounded=0;orthogonalLoop=1;jettySize=auto;html=1;strokeWidth=2;" parent="1" source="cpVLUIQBvUUd7k2zSbie-21" target="cpVLUIQBvUUd7k2zSbie-22" edge="1">
          <mxGeometry relative="1" as="geometry">
            <mxPoint x="500" y="260" as="targetPoint" />
          </mxGeometry>
        </mxCell>
        <mxCell id="cpVLUIQBvUUd7k2zSbie-21" value="" style="shape=curlyBracket;whiteSpace=wrap;html=1;rounded=1;flipH=1;labelPosition=right;verticalLabelPosition=middle;align=left;verticalAlign=middle;strokeColor=#000000;strokeWidth=4;fillColor=#00FF00;" parent="1" vertex="1">
          <mxGeometry x="295" y="210" width="20" height="100" as="geometry" />
        </mxCell>
        <mxCell id="cpVLUIQBvUUd7k2zSbie-22" value="&lt;h1&gt;No conocido&lt;/h1&gt;" style="text;html=1;strokeColor=none;fillColor=none;spacing=5;spacingTop=-20;whiteSpace=wrap;overflow=hidden;rounded=0;strokeWidth=0;" parent="1" vertex="1">
          <mxGeometry x="515" y="240" width="160" height="40" as="geometry" />
        </mxCell>
        <mxCell id="cpVLUIQBvUUd7k2zSbie-23" value="&lt;h1&gt;Conocido&lt;/h1&gt;" style="text;html=1;strokeColor=none;fillColor=none;spacing=5;spacingTop=-20;whiteSpace=wrap;overflow=hidden;rounded=0;strokeWidth=0;" parent="1" vertex="1">
          <mxGeometry x="460" y="165" width="130" height="40" as="geometry" />
        </mxCell>
        <mxCell id="cpVLUIQBvUUd7k2zSbie-24" value="&lt;span style=&quot;background-color: initial;&quot;&gt;Bancs&amp;nbsp;&lt;/span&gt;&lt;br&gt;&lt;span style=&quot;background-color: initial;&quot;&gt;BDD+Batch&lt;/span&gt;" style="text;html=1;strokeColor=none;fillColor=none;align=left;verticalAlign=middle;whiteSpace=wrap;rounded=0;strokeWidth=0;" parent="1" vertex="1">
          <mxGeometry x="620" y="170" width="100" height="30" as="geometry" />
        </mxCell>
        <mxCell id="cpVLUIQBvUUd7k2zSbie-25" value="&lt;span style=&quot;background-color: initial;&quot;&gt;&lt;b&gt;Conexiones&lt;/b&gt; &lt;b&gt;Aplicaciones&lt;/b&gt; Críticas + Bia&amp;nbsp;&lt;/span&gt;" style="text;html=1;strokeColor=none;fillColor=none;align=left;verticalAlign=middle;whiteSpace=wrap;rounded=0;strokeWidth=0;" parent="1" vertex="1">
          <mxGeometry x="600" y="290" width="100" height="65" as="geometry" />
        </mxCell>
        <mxCell id="cpVLUIQBvUUd7k2zSbie-26" value="&lt;span style=&quot;background-color: initial;&quot;&gt;&lt;b&gt;Conexiones&lt;/b&gt; &lt;b&gt;Aplicaciones&lt;br&gt;&lt;/b&gt;No críticas&lt;/span&gt;" style="text;html=1;strokeColor=none;fillColor=none;align=left;verticalAlign=middle;whiteSpace=wrap;rounded=0;strokeWidth=0;" parent="1" vertex="1">
          <mxGeometry x="490" y="280" width="100" height="65" as="geometry" />
        </mxCell>
        <mxCell id="cpVLUIQBvUUd7k2zSbie-28" value="deUna!" style="shape=image;verticalLabelPosition=bottom;labelBackgroundColor=default;verticalAlign=top;aspect=fixed;imageAspect=0;image=https://play-lh.googleusercontent.com/kbyMfEeE5B6l1ZA0WFrPxrhWWjpSeoI-BFYsonXoXiZVYmYu1xVjGyRGfQJRVQGK8Ik=w600-h300-pc0xffffff-pd;" parent="1" vertex="1">
          <mxGeometry x="831" y="771" width="152" height="76" as="geometry" />
        </mxCell>
        <mxCell id="cpVLUIQBvUUd7k2zSbie-29" value="Cliente movil" style="sketch=0;outlineConnect=0;fontColor=#232F3E;gradientColor=none;fillColor=#232F3D;strokeColor=none;dashed=0;verticalLabelPosition=bottom;verticalAlign=top;align=center;html=1;fontSize=12;fontStyle=0;aspect=fixed;pointerEvents=1;shape=mxgraph.aws4.mobile_client;strokeWidth=2;" parent="1" vertex="1">
          <mxGeometry x="789" y="769" width="39.94" height="76" as="geometry" />
        </mxCell>
        <mxCell id="cpVLUIQBvUUd7k2zSbie-30" value="Aplicaciones&lt;br&gt;&amp;nbsp;de terceros" style="sketch=0;aspect=fixed;pointerEvents=1;shadow=0;dashed=0;html=1;strokeColor=#081856;labelPosition=center;verticalLabelPosition=bottom;verticalAlign=top;align=center;fillColor=#081856;shape=mxgraph.azure.cloud;strokeWidth=2;" parent="1" vertex="1">
          <mxGeometry x="725.2" y="900.0000000000001" width="118.7" height="76" as="geometry" />
        </mxCell>
        <mxCell id="cpVLUIQBvUUd7k2zSbie-31" value="" style="group" parent="1" vertex="1" connectable="0">
          <mxGeometry x="989" y="771" width="70" height="76" as="geometry" />
        </mxCell>
        <mxCell id="cpVLUIQBvUUd7k2zSbie-32" value="" style="group;strokeColor=none;container=0;" parent="cpVLUIQBvUUd7k2zSbie-31" vertex="1" connectable="0">
          <mxGeometry width="67.74193548387098" height="71.52941176470588" as="geometry" />
        </mxCell>
        <mxCell id="cpVLUIQBvUUd7k2zSbie-33" value="CNB juridico" style="verticalLabelPosition=bottom;verticalAlign=top;html=1;shape=mxgraph.basic.polygon;polyCoords=[[0.25,0],[0.75,0],[1,0.25],[1,0.75],[0.75,1],[0.25,1],[0,0.75],[0,0.25]];polyline=0;strokeColor=#081856;strokeWidth=2;fillColor=#FFFFFF;" parent="cpVLUIQBvUUd7k2zSbie-31" vertex="1">
          <mxGeometry x="2.2580645161290325" y="4.470588235294118" width="67.74193548387098" height="71.52941176470588" as="geometry" />
        </mxCell>
        <mxCell id="cpVLUIQBvUUd7k2zSbie-34" value="" style="rounded=0;whiteSpace=wrap;html=1;strokeColor=#081856;strokeWidth=2;fillColor=#081856;" parent="cpVLUIQBvUUd7k2zSbie-31" vertex="1">
          <mxGeometry x="45.16129032258065" y="11.92156862745098" width="11.290322580645162" height="11.92156862745098" as="geometry" />
        </mxCell>
        <mxCell id="cpVLUIQBvUUd7k2zSbie-35" value="" style="rounded=0;whiteSpace=wrap;html=1;strokeColor=#081856;strokeWidth=2;fillColor=#081856;" parent="cpVLUIQBvUUd7k2zSbie-31" vertex="1">
          <mxGeometry x="45.16129032258065" y="29.80392156862745" width="11.290322580645162" height="11.92156862745098" as="geometry" />
        </mxCell>
        <mxCell id="cpVLUIQBvUUd7k2zSbie-36" value="" style="rounded=0;whiteSpace=wrap;html=1;strokeColor=#081856;strokeWidth=2;fillColor=#081856;" parent="cpVLUIQBvUUd7k2zSbie-31" vertex="1">
          <mxGeometry x="28.225806451612907" y="29.80392156862745" width="11.290322580645162" height="11.92156862745098" as="geometry" />
        </mxCell>
        <mxCell id="cpVLUIQBvUUd7k2zSbie-37" value="" style="rounded=0;whiteSpace=wrap;html=1;strokeColor=#081856;strokeWidth=2;fillColor=#081856;" parent="cpVLUIQBvUUd7k2zSbie-31" vertex="1">
          <mxGeometry x="11.290322580645162" y="29.80392156862745" width="11.290322580645162" height="11.92156862745098" as="geometry" />
        </mxCell>
        <mxCell id="cpVLUIQBvUUd7k2zSbie-38" value="" style="rounded=0;whiteSpace=wrap;html=1;strokeColor=#081856;strokeWidth=2;fillColor=#081856;" parent="cpVLUIQBvUUd7k2zSbie-31" vertex="1">
          <mxGeometry x="45.16129032258065" y="47.68627450980392" width="11.290322580645162" height="11.92156862745098" as="geometry" />
        </mxCell>
        <mxCell id="cpVLUIQBvUUd7k2zSbie-39" value="" style="rounded=0;whiteSpace=wrap;html=1;strokeColor=#081856;strokeWidth=2;fillColor=#081856;" parent="cpVLUIQBvUUd7k2zSbie-31" vertex="1">
          <mxGeometry x="28.225806451612907" y="47.68627450980392" width="11.290322580645162" height="11.92156862745098" as="geometry" />
        </mxCell>
        <mxCell id="cpVLUIQBvUUd7k2zSbie-40" value="" style="rounded=0;whiteSpace=wrap;html=1;strokeColor=#081856;strokeWidth=2;fillColor=#081856;" parent="cpVLUIQBvUUd7k2zSbie-31" vertex="1">
          <mxGeometry x="11.290322580645162" y="47.68627450980392" width="11.290322580645162" height="11.92156862745098" as="geometry" />
        </mxCell>
        <mxCell id="cpVLUIQBvUUd7k2zSbie-41" style="edgeStyle=orthogonalEdgeStyle;rounded=0;orthogonalLoop=1;jettySize=auto;html=1;entryX=0.5;entryY=0;entryDx=0;entryDy=0;entryPerimeter=0;strokeWidth=2;fontColor=#081856;startArrow=classic;startFill=1;" parent="1" source="cpVLUIQBvUUd7k2zSbie-42" target="cpVLUIQBvUUd7k2zSbie-44" edge="1">
          <mxGeometry relative="1" as="geometry" />
        </mxCell>
        <mxCell id="cpVLUIQBvUUd7k2zSbie-42" value="&lt;span style=&quot;font-weight: normal;&quot;&gt;Apigee API&lt;br&gt;Platform&lt;/span&gt;" style="sketch=0;html=1;verticalAlign=top;labelPosition=center;verticalLabelPosition=bottom;align=center;spacingTop=-6;fontSize=11;fontStyle=1;fontColor=#081856;shape=image;aspect=fixed;imageAspect=0;image=data:image/svg+xml,PHN2ZyB4bWxucz0iaHR0cDovL3d3dy53My5vcmcvMjAwMC9zdmciIHhtbG5zOnY9Imh0dHBzOi8vdmVjdGEuaW8vbmFubyIgd2lkdGg9IjIwLjE4MDIzMTA5NDM2MDM1IiBoZWlnaHQ9IjIwLjE4MDIwODIwNjE3Njc1OCIgdmlld0JveD0iLTAuMDAwMTE1MTY1MTIzMTMzOTIwMTMgLTAuMDAwMTAzMzQ0NDkzMjU0NTUzNTMgMjAuMTgwMjMxMDk0MzYwMzUgMjAuMTgwMjA4MjA2MTc2NzU4Ij4mI3hhOwk8c3R5bGUgdHlwZT0idGV4dC9jc3MiPiYjeGE7CS5zdDB7ZmlsbDojNjY5ZGY2O2ZpbGwtcnVsZTpldmVub2RkfSYjeGE7CS5zdDF7ZmlsbC1ydWxlOmV2ZW5vZGQ7ZmlsbDojNDI4NWY0fSYjeGE7CTwvc3R5bGU+JiN4YTsJPHBhdGggY2xhc3M9InN0MCIgZD0iTTMuMjkgMTAuMDlsMS4zMi0xLjMyLTEuNzktMS43OWEyLjk0IDIuOTQgMCAwIDEgMi4wOC01IDIuOTIgMi45MiAwIDAgMSAyLjA3Ljg2bDEuOCAxLjc5IDEuMzItMS4zNEw4LjMgMS41YTQuODEgNC44MSAwIDEgMC02LjggNi44em0xMy42IDBsLTEuMzIgMS4zMiAxLjc5IDEuOGEyLjk0IDIuOTQgMCAwIDEtNC4xNiA0LjE1bC0xLjc5LTEuNzktMS4zMiAxLjMyIDEuNzkgMS43OWE0LjgxIDQuODEgMCAxIDAgNi44LTYuOHoiLz4mI3hhOwk8cGF0aCBjbGFzcz0ic3QxIiBkPSJNNi45OCAxNy4zNmEyLjk0IDIuOTQgMCAxIDEtNC4xNi00LjE2bDEuNzktMS43OSA0LjE2IDQuMTZ6bTYuMjMtMTQuNTRhMi45MyAyLjkzIDAgMCAxIDUgMi4wOCAzIDMgMCAwIDEtLjg2IDIuMDhsLTEuNzkgMS43OS00LjE1LTQuMTZ6bS0zLjEyIDEwLjQ2YTMuMiAzLjIgMCAwIDEtMy4xOS0zLjE5aDBhMy4yMSAzLjIxIDAgMCAxIDMuMTktMy4xOWgwYTMuMjEgMy4yMSAwIDAgMSAzLjE5IDMuMTloMGEzLjIgMy4yIDAgMCAxLTMuMTkgMy4xOXptNi44LTMuMTlsMS43OS0xLjc5QTQuODEgNC44MSAwIDAgMCAxNi41NzQuMTUzIDQuODEgNC44MSAwIDAgMCAxMS44OCAxLjVsLTEuNzkgMS43OS02LjggNi44LTEuNzkgMS43OWE0LjgxIDQuODEgMCAwIDAgMi4xMDYgOC4xNDdBNC44MSA0LjgxIDAgMCAwIDguMyAxOC42OGwxLjc5LTEuNzl6Ii8+JiN4YTs8L3N2Zz4=;strokeColor=default;strokeWidth=2;fillColor=#FFFFFF;" parent="1" vertex="1">
          <mxGeometry x="971" y="901.8" width="76" height="76" as="geometry" />
        </mxCell>
        <mxCell id="cpVLUIQBvUUd7k2zSbie-43" style="edgeStyle=orthogonalEdgeStyle;rounded=0;orthogonalLoop=1;jettySize=auto;html=1;entryX=0.5;entryY=0;entryDx=0;entryDy=0;entryPerimeter=0;strokeWidth=2;fontColor=#081856;startArrow=classic;startFill=1;" parent="1" source="cpVLUIQBvUUd7k2zSbie-44" target="cpVLUIQBvUUd7k2zSbie-46" edge="1">
          <mxGeometry relative="1" as="geometry" />
        </mxCell>
        <mxCell id="cpVLUIQBvUUd7k2zSbie-44" value="Data power externo" style="sketch=0;points=[[0,0,0],[0.25,0,0],[0.5,0,0],[0.75,0,0],[1,0,0],[0,1,0],[0.25,1,0],[0.5,1,0],[0.75,1,0],[1,1,0],[0,0.25,0],[0,0.5,0],[0,0.75,0],[1,0.25,0],[1,0.5,0],[1,0.75,0]];outlineConnect=0;fontColor=#232F3E;gradientColor=#081856;gradientDirection=north;fillColor=#081856;strokeColor=#ffffff;dashed=0;verticalLabelPosition=bottom;verticalAlign=top;align=center;html=1;fontSize=12;fontStyle=0;aspect=fixed;shape=mxgraph.aws4.resourceIcon;resIcon=mxgraph.aws4.api_gateway;strokeWidth=2;" parent="1" vertex="1">
          <mxGeometry x="971" y="1112.17" width="76" height="76" as="geometry" />
        </mxCell>
        <mxCell id="cpVLUIQBvUUd7k2zSbie-45" style="edgeStyle=orthogonalEdgeStyle;rounded=0;orthogonalLoop=1;jettySize=auto;html=1;entryX=0.5;entryY=0;entryDx=0;entryDy=0;strokeWidth=2;fontColor=#0050A1;startArrow=classic;startFill=1;" parent="1" source="cpVLUIQBvUUd7k2zSbie-46" target="cpVLUIQBvUUd7k2zSbie-93" edge="1">
          <mxGeometry relative="1" as="geometry" />
        </mxCell>
        <mxCell id="cpVLUIQBvUUd7k2zSbie-46" value="Data power interno" style="sketch=0;points=[[0,0,0],[0.25,0,0],[0.5,0,0],[0.75,0,0],[1,0,0],[0,1,0],[0.25,1,0],[0.5,1,0],[0.75,1,0],[1,1,0],[0,0.25,0],[0,0.5,0],[0,0.75,0],[1,0.25,0],[1,0.5,0],[1,0.75,0]];outlineConnect=0;fontColor=#232F3E;gradientColor=#081856;gradientDirection=north;fillColor=#081856;strokeColor=#ffffff;dashed=0;verticalLabelPosition=bottom;verticalAlign=top;align=center;html=1;fontSize=12;fontStyle=0;aspect=fixed;shape=mxgraph.aws4.resourceIcon;resIcon=mxgraph.aws4.api_gateway;strokeWidth=2;" parent="1" vertex="1">
          <mxGeometry x="970" y="1295.2" width="76" height="76" as="geometry" />
        </mxCell>
        <mxCell id="cpVLUIQBvUUd7k2zSbie-47" style="edgeStyle=orthogonalEdgeStyle;rounded=0;orthogonalLoop=1;jettySize=auto;html=1;strokeWidth=2;fontColor=#081856;startArrow=classic;startFill=1;" parent="1" source="cpVLUIQBvUUd7k2zSbie-48" target="cpVLUIQBvUUd7k2zSbie-79" edge="1">
          <mxGeometry relative="1" as="geometry" />
        </mxCell>
        <mxCell id="cpVLUIQBvUUd7k2zSbie-48" value="Legacies" style="sketch=0;aspect=fixed;pointerEvents=1;shadow=0;dashed=0;html=1;strokeColor=none;labelPosition=center;verticalLabelPosition=bottom;verticalAlign=top;align=center;fillColor=#081856;shape=mxgraph.mscae.enterprise.windows_server;strokeWidth=2;" parent="1" vertex="1">
          <mxGeometry x="-600" y="1596.76" width="59.28" height="76" as="geometry" />
        </mxCell>
        <mxCell id="cpVLUIQBvUUd7k2zSbie-49" style="edgeStyle=orthogonalEdgeStyle;rounded=0;orthogonalLoop=1;jettySize=auto;html=1;entryX=0.5;entryY=0;entryDx=0;entryDy=0;strokeWidth=2;fontColor=#081856;startArrow=classic;startFill=1;" parent="1" source="cpVLUIQBvUUd7k2zSbie-50" target="cpVLUIQBvUUd7k2zSbie-86" edge="1">
          <mxGeometry relative="1" as="geometry">
            <mxPoint x="-381.5" y="1665.7600000000002" as="sourcePoint" />
            <mxPoint x="-406" y="1840" as="targetPoint" />
          </mxGeometry>
        </mxCell>
        <mxCell id="cpVLUIQBvUUd7k2zSbie-50" value="" style="shape=image;verticalLabelPosition=bottom;labelBackgroundColor=default;verticalAlign=top;aspect=fixed;imageAspect=0;image=https://upload.wikimedia.org/wikipedia/en/5/56/WSO2_Software_Logo.png;" parent="1" vertex="1">
          <mxGeometry x="-500" y="1589.76" width="168.89" height="76" as="geometry" />
        </mxCell>
        <mxCell id="cpVLUIQBvUUd7k2zSbie-51" style="edgeStyle=orthogonalEdgeStyle;rounded=0;orthogonalLoop=1;jettySize=auto;html=1;strokeWidth=2;fontColor=#081856;startArrow=classic;startFill=1;" parent="1" source="cpVLUIQBvUUd7k2zSbie-5" target="cpVLUIQBvUUd7k2zSbie-88" edge="1">
          <mxGeometry relative="1" as="geometry" />
        </mxCell>
        <mxCell id="cpVLUIQBvUUd7k2zSbie-52" style="edgeStyle=orthogonalEdgeStyle;rounded=0;orthogonalLoop=1;jettySize=auto;html=1;entryX=0.5;entryY=0;entryDx=0;entryDy=0;strokeWidth=2;fontColor=#081856;startArrow=classic;startFill=1;" parent="1" source="cpVLUIQBvUUd7k2zSbie-53" target="cpVLUIQBvUUd7k2zSbie-89" edge="1">
          <mxGeometry relative="1" as="geometry" />
        </mxCell>
        <mxCell id="cpVLUIQBvUUd7k2zSbie-53" value="" style="shape=image;verticalLabelPosition=bottom;labelBackgroundColor=default;verticalAlign=top;aspect=fixed;imageAspect=0;image=https://www.angioni.nl/wp-content/uploads/2019/01/IBM-WAS-Portal.png;" parent="1" vertex="1">
          <mxGeometry x="-160" y="1598.7" width="76" height="76" as="geometry" />
        </mxCell>
        <mxCell id="cpVLUIQBvUUd7k2zSbie-54" style="edgeStyle=orthogonalEdgeStyle;rounded=0;orthogonalLoop=1;jettySize=auto;html=1;strokeWidth=2;fontColor=#081856;startArrow=classic;startFill=1;" parent="1" source="cpVLUIQBvUUd7k2zSbie-55" edge="1">
          <mxGeometry relative="1" as="geometry">
            <mxPoint x="411" y="1480" as="targetPoint" />
          </mxGeometry>
        </mxCell>
        <mxCell id="cpVLUIQBvUUd7k2zSbie-55" value="Legacies" style="sketch=0;aspect=fixed;pointerEvents=1;shadow=0;dashed=0;html=1;strokeColor=none;labelPosition=center;verticalLabelPosition=bottom;verticalAlign=top;align=center;fillColor=#081856;shape=mxgraph.mscae.enterprise.windows_server;strokeWidth=2;" parent="1" vertex="1">
          <mxGeometry x="381" y="1341.2" width="59.28" height="76" as="geometry" />
        </mxCell>
        <mxCell id="cpVLUIQBvUUd7k2zSbie-56" value="Notificador" style="shape=image;verticalLabelPosition=bottom;labelBackgroundColor=none;verticalAlign=top;aspect=fixed;imageAspect=0;image=https://www.midvision.com/crane/wp-content/uploads/2017/11/WAS-AS.png;" parent="1" vertex="1">
          <mxGeometry x="116.08000000000004" y="1604.7" width="76" height="76" as="geometry" />
        </mxCell>
        <mxCell id="cpVLUIQBvUUd7k2zSbie-57" value="Omnicanal" style="shape=image;verticalLabelPosition=bottom;labelBackgroundColor=none;verticalAlign=top;aspect=fixed;imageAspect=0;image=https://www.midvision.com/crane/wp-content/uploads/2017/11/WAS-AS.png;" parent="1" vertex="1">
          <mxGeometry x="240" y="1604.7" width="76" height="76" as="geometry" />
        </mxCell>
        <mxCell id="cpVLUIQBvUUd7k2zSbie-58" value="" style="shape=image;verticalLabelPosition=bottom;labelBackgroundColor=default;verticalAlign=top;aspect=fixed;imageAspect=0;image=https://cdn.mindmajix.com/courses/websphere-process-server-training.png;" parent="1" vertex="1">
          <mxGeometry x="363" y="1604.78" width="126.67" height="76" as="geometry" />
        </mxCell>
        <mxCell id="cpVLUIQBvUUd7k2zSbie-59" value="IBM BUS&lt;br&gt;Soporte" style="aspect=fixed;perimeter=ellipsePerimeter;html=1;align=center;shadow=0;dashed=0;fontColor=#081856;labelBackgroundColor=#ffffff;fontSize=12;spacingTop=3;image;image=img/lib/ibm/blockchain/message_bus.svg;strokeColor=#081856;strokeWidth=2;fillColor=none;gradientColor=#081856;" parent="1" vertex="1">
          <mxGeometry x="535" y="1603.78" width="76" height="76" as="geometry" />
        </mxCell>
        <mxCell id="cpVLUIQBvUUd7k2zSbie-60" value="Message&lt;br&gt;&amp;nbsp;processor" style="sketch=0;aspect=fixed;pointerEvents=1;shadow=0;dashed=0;html=1;strokeColor=none;labelPosition=center;verticalLabelPosition=bottom;verticalAlign=top;align=center;fillColor=#081856;shape=mxgraph.mscae.enterprise.windows_server;strokeWidth=2;" parent="1" vertex="1">
          <mxGeometry x="667" y="1604.29" width="59.28" height="76" as="geometry" />
        </mxCell>
        <mxCell id="cpVLUIQBvUUd7k2zSbie-61" value="Openshift" style="sketch=0;aspect=fixed;html=1;points=[];align=center;image;fontSize=12;image=img/lib/mscae/OpenShift.svg;strokeColor=default;strokeWidth=2;fillColor=default;gradientColor=#081856;labelBackgroundColor=none;shadow=0;dashed=0;spacingTop=3;" parent="1" vertex="1">
          <mxGeometry x="901.02" y="1604.3999999999999" width="82.6" height="76" as="geometry" />
        </mxCell>
        <mxCell id="cpVLUIQBvUUd7k2zSbie-62" value="" style="group" parent="1" vertex="1" connectable="0">
          <mxGeometry x="-160" y="1876.7" width="94.8599999999999" height="170" as="geometry" />
        </mxCell>
        <mxCell id="cpVLUIQBvUUd7k2zSbie-63" value="" style="strokeWidth=2;html=1;shape=mxgraph.flowchart.database;whiteSpace=wrap;strokeColor=#FFFFFF;fontColor=#081856;fillColor=#081856;gradientColor=none;" parent="cpVLUIQBvUUd7k2zSbie-62" vertex="1">
          <mxGeometry width="94.86" height="130" as="geometry" />
        </mxCell>
        <mxCell id="cpVLUIQBvUUd7k2zSbie-64" value="BDD Bancs" style="text;html=1;strokeColor=none;fillColor=none;align=center;verticalAlign=middle;whiteSpace=wrap;rounded=0;strokeWidth=2;fontColor=#081856;" parent="cpVLUIQBvUUd7k2zSbie-62" vertex="1">
          <mxGeometry x="17.430000000000064" y="140" width="60" height="30" as="geometry" />
        </mxCell>
        <mxCell id="cpVLUIQBvUUd7k2zSbie-65" value="Cliente Web" style="sketch=0;outlineConnect=0;gradientColor=none;fontColor=#545B64;strokeColor=none;fillColor=#879196;dashed=0;verticalLabelPosition=bottom;verticalAlign=top;align=center;html=1;fontSize=12;fontStyle=0;aspect=fixed;shape=mxgraph.aws4.illustration_devices;pointerEvents=1;strokeWidth=2;" parent="1" vertex="1">
          <mxGeometry x="641.02" y="769" width="104.11" height="76" as="geometry" />
        </mxCell>
        <mxCell id="cpVLUIQBvUUd7k2zSbie-71" value="" style="group" parent="1" vertex="1" connectable="0">
          <mxGeometry x="870" y="901.8" width="80" height="98.20000000000005" as="geometry" />
        </mxCell>
        <mxCell id="cpVLUIQBvUUd7k2zSbie-72" value="" style="group" parent="cpVLUIQBvUUd7k2zSbie-71" vertex="1" connectable="0">
          <mxGeometry width="80" height="76" as="geometry" />
        </mxCell>
        <mxCell id="cpVLUIQBvUUd7k2zSbie-73" value="" style="group" parent="cpVLUIQBvUUd7k2zSbie-72" vertex="1" connectable="0">
          <mxGeometry x="-1.1428571428571428" width="80.00000000000006" height="76" as="geometry" />
        </mxCell>
        <mxCell id="cpVLUIQBvUUd7k2zSbie-74" value="" style="verticalLabelPosition=bottom;verticalAlign=top;html=1;shape=mxgraph.basic.polygon;polyCoords=[[0.25,0],[0.75,0],[1,0.25],[1,0.75],[0.75,1],[0.25,1],[0,0.75],[0,0.25]];polyline=0;strokeColor=#081856;strokeWidth=1;fontColor=#081856;fillColor=#FFFFFF;gradientColor=none;" parent="cpVLUIQBvUUd7k2zSbie-73" vertex="1">
          <mxGeometry width="80.00000000000006" height="76" as="geometry" />
        </mxCell>
        <mxCell id="cpVLUIQBvUUd7k2zSbie-75" value="" style="shape=image;html=1;verticalAlign=top;verticalLabelPosition=bottom;labelBackgroundColor=#ffffff;imageAspect=0;aspect=fixed;image=https://cdn1.iconfinder.com/data/icons/ui-essential-17/32/UI_Essential_Outline_1_essential-app-ui-internet-word-128.png;strokeColor=#FFFFFF;strokeWidth=1;fontColor=#081856;fillColor=#081856;gradientColor=none;gradientDirection=south;" parent="cpVLUIQBvUUd7k2zSbie-73" vertex="1">
          <mxGeometry x="15.32142857142857" y="13.316285714285716" width="49.36051948051948" height="49.36051948051948" as="geometry" />
        </mxCell>
        <mxCell id="cpVLUIQBvUUd7k2zSbie-76" value="BancaWeb" style="text;html=1;strokeColor=none;fillColor=none;align=center;verticalAlign=middle;whiteSpace=wrap;rounded=0;strokeWidth=1;fontColor=#081856;" parent="cpVLUIQBvUUd7k2zSbie-71" vertex="1">
          <mxGeometry x="10" y="68.20000000000005" width="60" height="30" as="geometry" />
        </mxCell>
        <mxCell id="cpVLUIQBvUUd7k2zSbie-77" style="edgeStyle=orthogonalEdgeStyle;rounded=0;orthogonalLoop=1;jettySize=auto;html=1;exitX=0;exitY=0.5;exitDx=0;exitDy=0;strokeWidth=2;fontColor=#081856;startArrow=classic;startFill=1;entryX=1;entryY=0.5;entryDx=0;entryDy=0;" parent="1" source="cpVLUIQBvUUd7k2zSbie-81" target="d_LiT2keymrr6b--2Nm0-2" edge="1">
          <mxGeometry relative="1" as="geometry" />
        </mxCell>
        <mxCell id="cpVLUIQBvUUd7k2zSbie-78" style="edgeStyle=orthogonalEdgeStyle;rounded=0;orthogonalLoop=1;jettySize=auto;html=1;entryX=0.5;entryY=0;entryDx=0;entryDy=0;strokeWidth=2;fontColor=#081856;startArrow=classic;startFill=1;" parent="1" source="cpVLUIQBvUUd7k2zSbie-79" target="cpVLUIQBvUUd7k2zSbie-87" edge="1">
          <mxGeometry relative="1" as="geometry" />
        </mxCell>
        <mxCell id="cpVLUIQBvUUd7k2zSbie-79" value="tcs provider" style="shape=image;html=1;verticalAlign=top;verticalLabelPosition=bottom;labelBackgroundColor=#ffffff;imageAspect=0;aspect=fixed;image=https://cdn2.iconfinder.com/data/icons/essential-web-3/50/gear-innovation-process-setting-engine-128.png;strokeColor=#081856;strokeWidth=2;fontColor=#081856;fillColor=none;gradientColor=none;gradientDirection=south;" parent="1" vertex="1">
          <mxGeometry x="-589.36" y="1737" width="38" height="38" as="geometry" />
        </mxCell>
        <mxCell id="cpVLUIQBvUUd7k2zSbie-80" value="" style="group" parent="1" vertex="1" connectable="0">
          <mxGeometry x="682.28" y="1815" width="246.72" height="240" as="geometry" />
        </mxCell>
        <mxCell id="cpVLUIQBvUUd7k2zSbie-81" value="" style="rounded=1;whiteSpace=wrap;html=1;strokeColor=#081856;strokeWidth=1;fontColor=#081856;fillColor=none;gradientColor=none;gradientDirection=south;" parent="cpVLUIQBvUUd7k2zSbie-80" vertex="1">
          <mxGeometry y="50" width="246.72" height="190" as="geometry" />
        </mxCell>
        <mxCell id="cpVLUIQBvUUd7k2zSbie-82" value="Capa app &lt;br&gt;(transaction)" style="sketch=0;pointerEvents=1;shadow=0;dashed=0;html=1;strokeColor=none;fillColor=#505050;labelPosition=center;verticalLabelPosition=bottom;verticalAlign=top;outlineConnect=0;align=center;shape=mxgraph.office.concepts.app_part;strokeWidth=2;fontColor=#081856;" parent="cpVLUIQBvUUd7k2zSbie-80" vertex="1">
          <mxGeometry x="74.74" y="55.46739130434786" width="99.99999999999999" height="97.82608695652173" as="geometry" />
        </mxCell>
        <mxCell id="d_LiT2keymrr6b--2Nm0-61" value="TCP/IP" style="text;html=1;strokeColor=default;fillColor=none;align=center;verticalAlign=middle;whiteSpace=wrap;rounded=0;strokeWidth=1;" parent="cpVLUIQBvUUd7k2zSbie-80" vertex="1">
          <mxGeometry x="94.74000000000001" y="200.70334928229664" width="60" height="32.29665071770335" as="geometry" />
        </mxCell>
        <mxCell id="cpVLUIQBvUUd7k2zSbie-83" value="Orquestadores BDD" style="text;html=1;strokeColor=none;fillColor=none;align=center;verticalAlign=middle;whiteSpace=wrap;rounded=0;strokeWidth=1;fontColor=#081856;fontStyle=1" parent="1" vertex="1">
          <mxGeometry x="248" y="1540" width="122" height="30" as="geometry" />
        </mxCell>
        <mxCell id="cpVLUIQBvUUd7k2zSbie-84" value="Orquestadores APP" style="text;html=1;strokeColor=none;fillColor=none;align=center;verticalAlign=middle;whiteSpace=wrap;rounded=0;strokeWidth=1;fontColor=#081856;fontStyle=1" parent="1" vertex="1">
          <mxGeometry x="723.5499999999998" y="1540" width="122" height="30" as="geometry" />
        </mxCell>
        <mxCell id="cpVLUIQBvUUd7k2zSbie-85" value="Integración de servicios" style="text;html=1;strokeColor=none;fillColor=none;align=center;verticalAlign=middle;whiteSpace=wrap;rounded=0;strokeWidth=1;fontColor=#081856;fontStyle=1" parent="1" vertex="1">
          <mxGeometry x="476.02" y="1490" width="165" height="30" as="geometry" />
        </mxCell>
        <mxCell id="cpVLUIQBvUUd7k2zSbie-86" value="JDBC" style="text;html=1;strokeColor=default;fillColor=none;align=center;verticalAlign=middle;whiteSpace=wrap;rounded=0;strokeWidth=1;fontColor=#081856;" parent="1" vertex="1">
          <mxGeometry x="-445.55" y="1840" width="60" height="30" as="geometry" />
        </mxCell>
        <mxCell id="cpVLUIQBvUUd7k2zSbie-87" value="ODBC" style="text;html=1;strokeColor=default;fillColor=none;align=center;verticalAlign=middle;whiteSpace=wrap;rounded=0;strokeWidth=1;fontColor=#081856;" parent="1" vertex="1">
          <mxGeometry x="-600" y="1840" width="60" height="30" as="geometry" />
        </mxCell>
        <mxCell id="cpVLUIQBvUUd7k2zSbie-88" value="PL/SQL" style="text;html=1;strokeColor=default;fillColor=none;align=center;verticalAlign=middle;whiteSpace=wrap;rounded=0;strokeWidth=1;fontColor=#081856;" parent="1" vertex="1">
          <mxGeometry x="-278.7" y="1836.7" width="60" height="30" as="geometry" />
        </mxCell>
        <mxCell id="cpVLUIQBvUUd7k2zSbie-89" value="JDBC" style="text;html=1;strokeColor=default;fillColor=none;align=center;verticalAlign=middle;whiteSpace=wrap;rounded=0;strokeWidth=1;fontColor=#081856;" parent="1" vertex="1">
          <mxGeometry x="-152" y="1836.7" width="60" height="30" as="geometry" />
        </mxCell>
        <mxCell id="cpVLUIQBvUUd7k2zSbie-90" value="" style="group" parent="1" vertex="1" connectable="0">
          <mxGeometry x="751" y="1612" width="120" height="106" as="geometry" />
        </mxCell>
        <mxCell id="cpVLUIQBvUUd7k2zSbie-91" value="" style="aspect=fixed;perimeter=ellipsePerimeter;html=1;align=center;shadow=0;dashed=0;fontColor=default;labelBackgroundColor=none;fontSize=12;spacingTop=3;image;image=img/lib/ibm/blockchain/message_bus.svg;strokeColor=default;strokeWidth=2;fillColor=default;gradientColor=#081856;sketch=0;" parent="cpVLUIQBvUUd7k2zSbie-90" vertex="1">
          <mxGeometry x="22" width="76" height="76" as="geometry" />
        </mxCell>
        <mxCell id="cpVLUIQBvUUd7k2zSbie-92" value="&lt;span style=&quot;color: rgb(0, 0, 0);&quot;&gt;IBM omnichannel bus&lt;/span&gt;" style="text;html=1;strokeColor=none;fillColor=none;align=center;verticalAlign=middle;whiteSpace=wrap;rounded=0;labelBackgroundColor=none;sketch=0;strokeWidth=1;fontColor=#0050A1;" parent="cpVLUIQBvUUd7k2zSbie-90" vertex="1">
          <mxGeometry y="76" width="120" height="30" as="geometry" />
        </mxCell>
        <mxCell id="cpVLUIQBvUUd7k2zSbie-93" value="" style="ellipse;whiteSpace=wrap;html=1;aspect=fixed;labelBackgroundColor=none;sketch=0;strokeColor=none;strokeWidth=1;fontColor=#0050A1;fillColor=#FFFFFF;gradientColor=none;gradientDirection=south;" parent="1" vertex="1">
          <mxGeometry x="993" y="1500" width="30" height="30" as="geometry" />
        </mxCell>
        <mxCell id="cpVLUIQBvUUd7k2zSbie-94" value="JDBC" style="text;html=1;strokeColor=default;fillColor=none;align=center;verticalAlign=middle;whiteSpace=wrap;rounded=0;strokeWidth=1;fontColor=#081856;" parent="1" vertex="1">
          <mxGeometry x="64" y="1836.7" width="60" height="30" as="geometry" />
        </mxCell>
        <mxCell id="cpVLUIQBvUUd7k2zSbie-95" value="" style="endArrow=classic;startArrow=classic;html=1;rounded=0;strokeWidth=2;fontColor=#0050A1;entryX=0.084;entryY=0.997;entryDx=0;entryDy=0;entryPerimeter=0;exitX=0.5;exitY=0;exitDx=0;exitDy=0;" parent="1" source="cpVLUIQBvUUd7k2zSbie-94" target="cpVLUIQBvUUd7k2zSbie-4" edge="1">
          <mxGeometry width="50" height="50" relative="1" as="geometry">
            <mxPoint x="90" y="1820" as="sourcePoint" />
            <mxPoint x="140" y="1770" as="targetPoint" />
          </mxGeometry>
        </mxCell>
        <mxCell id="d_LiT2keymrr6b--2Nm0-1" value="" style="rounded=1;whiteSpace=wrap;html=1;fillColor=none;" parent="1" vertex="1">
          <mxGeometry x="511" y="1580" width="129" height="140" as="geometry" />
        </mxCell>
        <mxCell id="cpVLUIQBvUUd7k2zSbie-96" value="RED EXTERNA" style="rounded=1;whiteSpace=wrap;html=1;strokeColor=#36393d;strokeWidth=1;fillColor=#cce5ff;gradientDirection=south;verticalAlign=top;" parent="1" vertex="1">
          <mxGeometry x="-720" y="2154" width="1860" height="136" as="geometry" />
        </mxCell>
        <mxCell id="d_LiT2keymrr6b--2Nm0-2" value="JDBC" style="text;html=1;strokeColor=default;fillColor=none;align=center;verticalAlign=middle;whiteSpace=wrap;rounded=0;strokeWidth=1;fontColor=#081856;" parent="1" vertex="1">
          <mxGeometry x="149" y="1943.8500000000001" width="60" height="30" as="geometry" />
        </mxCell>
        <mxCell id="d_LiT2keymrr6b--2Nm0-3" value="BANCS APP" style="text;html=1;strokeColor=none;fillColor=none;align=center;verticalAlign=middle;whiteSpace=wrap;rounded=0;strokeWidth=1;fontColor=#081856;fontStyle=1" parent="1" vertex="1">
          <mxGeometry x="738.9999999999999" y="1821" width="122" height="30" as="geometry" />
        </mxCell>
        <mxCell id="d_LiT2keymrr6b--2Nm0-4" value="BANCS BDD" style="text;html=1;strokeColor=none;fillColor=none;align=center;verticalAlign=middle;whiteSpace=wrap;rounded=0;strokeWidth=1;fontColor=#081856;fontStyle=1" parent="1" vertex="1">
          <mxGeometry x="-183.0000000000001" y="2055" width="122" height="30" as="geometry" />
        </mxCell>
        <mxCell id="d_LiT2keymrr6b--2Nm0-5" style="edgeStyle=orthogonalEdgeStyle;rounded=0;orthogonalLoop=1;jettySize=auto;html=1;entryX=0.5;entryY=0;entryDx=0;entryDy=0;startArrow=classic;startFill=1;exitX=0.5;exitY=1;exitDx=0;exitDy=0;" parent="1" source="d_LiT2keymrr6b--2Nm0-61" target="d_LiT2keymrr6b--2Nm0-6" edge="1">
          <mxGeometry relative="1" as="geometry" />
        </mxCell>
        <mxCell id="d_LiT2keymrr6b--2Nm0-6" value="" style="ellipse;whiteSpace=wrap;html=1;aspect=fixed;fillColor=none;strokeColor=none;" parent="1" vertex="1">
          <mxGeometry x="767" y="2180" width="80" height="80" as="geometry" />
        </mxCell>
        <mxCell id="d_LiT2keymrr6b--2Nm0-27" value="" style="group" parent="1" vertex="1" connectable="0">
          <mxGeometry x="550" y="2170" width="70" height="76" as="geometry" />
        </mxCell>
        <mxCell id="d_LiT2keymrr6b--2Nm0-28" value="" style="group;strokeColor=none;container=0;" parent="d_LiT2keymrr6b--2Nm0-27" vertex="1" connectable="0">
          <mxGeometry width="67.74193548387098" height="71.52941176470588" as="geometry" />
        </mxCell>
        <mxCell id="d_LiT2keymrr6b--2Nm0-29" value="CNB personas" style="verticalLabelPosition=bottom;verticalAlign=top;html=1;shape=mxgraph.basic.polygon;polyCoords=[[0.25,0],[0.75,0],[1,0.25],[1,0.75],[0.75,1],[0.25,1],[0,0.75],[0,0.25]];polyline=0;strokeColor=#081856;strokeWidth=2;fillColor=#FFFFFF;" parent="d_LiT2keymrr6b--2Nm0-27" vertex="1">
          <mxGeometry x="2.2580645161290325" y="4.470588235294118" width="67.74193548387098" height="71.52941176470588" as="geometry" />
        </mxCell>
        <mxCell id="d_LiT2keymrr6b--2Nm0-30" value="" style="rounded=0;whiteSpace=wrap;html=1;strokeColor=#081856;strokeWidth=2;fillColor=#081856;" parent="d_LiT2keymrr6b--2Nm0-27" vertex="1">
          <mxGeometry x="45.16129032258065" y="11.92156862745098" width="11.290322580645162" height="11.92156862745098" as="geometry" />
        </mxCell>
        <mxCell id="d_LiT2keymrr6b--2Nm0-31" value="" style="rounded=0;whiteSpace=wrap;html=1;strokeColor=#081856;strokeWidth=2;fillColor=#081856;" parent="d_LiT2keymrr6b--2Nm0-27" vertex="1">
          <mxGeometry x="45.16129032258065" y="29.80392156862745" width="11.290322580645162" height="11.92156862745098" as="geometry" />
        </mxCell>
        <mxCell id="d_LiT2keymrr6b--2Nm0-32" value="" style="rounded=0;whiteSpace=wrap;html=1;strokeColor=#081856;strokeWidth=2;fillColor=#081856;" parent="d_LiT2keymrr6b--2Nm0-27" vertex="1">
          <mxGeometry x="28.225806451612907" y="29.80392156862745" width="11.290322580645162" height="11.92156862745098" as="geometry" />
        </mxCell>
        <mxCell id="d_LiT2keymrr6b--2Nm0-33" value="" style="rounded=0;whiteSpace=wrap;html=1;strokeColor=#081856;strokeWidth=2;fillColor=#081856;" parent="d_LiT2keymrr6b--2Nm0-27" vertex="1">
          <mxGeometry x="11.290322580645162" y="29.80392156862745" width="11.290322580645162" height="11.92156862745098" as="geometry" />
        </mxCell>
        <mxCell id="d_LiT2keymrr6b--2Nm0-34" value="" style="rounded=0;whiteSpace=wrap;html=1;strokeColor=#081856;strokeWidth=2;fillColor=#081856;" parent="d_LiT2keymrr6b--2Nm0-27" vertex="1">
          <mxGeometry x="45.16129032258065" y="47.68627450980392" width="11.290322580645162" height="11.92156862745098" as="geometry" />
        </mxCell>
        <mxCell id="d_LiT2keymrr6b--2Nm0-35" value="" style="rounded=0;whiteSpace=wrap;html=1;strokeColor=#081856;strokeWidth=2;fillColor=#081856;" parent="d_LiT2keymrr6b--2Nm0-27" vertex="1">
          <mxGeometry x="28.225806451612907" y="47.68627450980392" width="11.290322580645162" height="11.92156862745098" as="geometry" />
        </mxCell>
        <mxCell id="d_LiT2keymrr6b--2Nm0-36" value="" style="rounded=0;whiteSpace=wrap;html=1;strokeColor=#081856;strokeWidth=2;fillColor=#081856;" parent="d_LiT2keymrr6b--2Nm0-27" vertex="1">
          <mxGeometry x="11.290322580645162" y="47.68627450980392" width="11.290322580645162" height="11.92156862745098" as="geometry" />
        </mxCell>
        <mxCell id="d_LiT2keymrr6b--2Nm0-37" value="" style="group" parent="1" vertex="1" connectable="0">
          <mxGeometry x="640" y="2170" width="70" height="76" as="geometry" />
        </mxCell>
        <mxCell id="d_LiT2keymrr6b--2Nm0-38" value="" style="group;strokeColor=none;container=0;" parent="d_LiT2keymrr6b--2Nm0-37" vertex="1" connectable="0">
          <mxGeometry width="67.74193548387098" height="71.52941176470588" as="geometry" />
        </mxCell>
        <mxCell id="d_LiT2keymrr6b--2Nm0-39" value="ATMs" style="verticalLabelPosition=bottom;verticalAlign=top;html=1;shape=mxgraph.basic.polygon;polyCoords=[[0.25,0],[0.75,0],[1,0.25],[1,0.75],[0.75,1],[0.25,1],[0,0.75],[0,0.25]];polyline=0;strokeColor=#081856;strokeWidth=2;fillColor=#FFFFFF;" parent="d_LiT2keymrr6b--2Nm0-37" vertex="1">
          <mxGeometry x="2.2580645161290325" y="4.470588235294118" width="67.74193548387098" height="71.52941176470588" as="geometry" />
        </mxCell>
        <mxCell id="d_LiT2keymrr6b--2Nm0-40" value="" style="rounded=0;whiteSpace=wrap;html=1;strokeColor=#081856;strokeWidth=2;fillColor=#081856;" parent="d_LiT2keymrr6b--2Nm0-37" vertex="1">
          <mxGeometry x="45.16129032258065" y="11.92156862745098" width="11.290322580645162" height="11.92156862745098" as="geometry" />
        </mxCell>
        <mxCell id="d_LiT2keymrr6b--2Nm0-41" value="" style="rounded=0;whiteSpace=wrap;html=1;strokeColor=#081856;strokeWidth=2;fillColor=#081856;" parent="d_LiT2keymrr6b--2Nm0-37" vertex="1">
          <mxGeometry x="45.16129032258065" y="29.80392156862745" width="11.290322580645162" height="11.92156862745098" as="geometry" />
        </mxCell>
        <mxCell id="d_LiT2keymrr6b--2Nm0-42" value="" style="rounded=0;whiteSpace=wrap;html=1;strokeColor=#081856;strokeWidth=2;fillColor=#081856;" parent="d_LiT2keymrr6b--2Nm0-37" vertex="1">
          <mxGeometry x="28.225806451612907" y="29.80392156862745" width="11.290322580645162" height="11.92156862745098" as="geometry" />
        </mxCell>
        <mxCell id="d_LiT2keymrr6b--2Nm0-43" value="" style="rounded=0;whiteSpace=wrap;html=1;strokeColor=#081856;strokeWidth=2;fillColor=#081856;" parent="d_LiT2keymrr6b--2Nm0-37" vertex="1">
          <mxGeometry x="11.290322580645162" y="29.80392156862745" width="11.290322580645162" height="11.92156862745098" as="geometry" />
        </mxCell>
        <mxCell id="d_LiT2keymrr6b--2Nm0-44" value="" style="rounded=0;whiteSpace=wrap;html=1;strokeColor=#081856;strokeWidth=2;fillColor=#081856;" parent="d_LiT2keymrr6b--2Nm0-37" vertex="1">
          <mxGeometry x="45.16129032258065" y="47.68627450980392" width="11.290322580645162" height="11.92156862745098" as="geometry" />
        </mxCell>
        <mxCell id="d_LiT2keymrr6b--2Nm0-45" value="" style="rounded=0;whiteSpace=wrap;html=1;strokeColor=#081856;strokeWidth=2;fillColor=#081856;" parent="d_LiT2keymrr6b--2Nm0-37" vertex="1">
          <mxGeometry x="28.225806451612907" y="47.68627450980392" width="11.290322580645162" height="11.92156862745098" as="geometry" />
        </mxCell>
        <mxCell id="d_LiT2keymrr6b--2Nm0-46" value="" style="rounded=0;whiteSpace=wrap;html=1;strokeColor=#081856;strokeWidth=2;fillColor=#081856;" parent="d_LiT2keymrr6b--2Nm0-37" vertex="1">
          <mxGeometry x="11.290322580645162" y="47.68627450980392" width="11.290322580645162" height="11.92156862745098" as="geometry" />
        </mxCell>
        <mxCell id="d_LiT2keymrr6b--2Nm0-47" value="CANALES" style="shape=step;perimeter=stepPerimeter;whiteSpace=wrap;html=1;fixedSize=1;fillColor=#fff2cc;strokeColor=#d6b656;" parent="1" vertex="1">
          <mxGeometry x="-940" y="771" width="180" height="80" as="geometry" />
        </mxCell>
        <mxCell id="d_LiT2keymrr6b--2Nm0-48" value="APLICACION NUBE" style="shape=step;perimeter=stepPerimeter;whiteSpace=wrap;html=1;fixedSize=1;fillColor=#fff2cc;strokeColor=#d6b656;" parent="1" vertex="1">
          <mxGeometry x="-940" y="910.9" width="180" height="80" as="geometry" />
        </mxCell>
        <mxCell id="d_LiT2keymrr6b--2Nm0-49" value="APLICACION BANCO E INTEGRACIÓN" style="shape=step;perimeter=stepPerimeter;whiteSpace=wrap;html=1;fixedSize=1;fillColor=#fff2cc;strokeColor=#d6b656;" parent="1" vertex="1">
          <mxGeometry x="-940" y="1110.17" width="180" height="80" as="geometry" />
        </mxCell>
        <mxCell id="d_LiT2keymrr6b--2Nm0-50" value="BACKEND" style="shape=step;perimeter=stepPerimeter;whiteSpace=wrap;html=1;fixedSize=1;fillColor=#fff2cc;strokeColor=#d6b656;" parent="1" vertex="1">
          <mxGeometry x="-940" y="1460" width="180" height="80" as="geometry" />
        </mxCell>
        <mxCell id="d_LiT2keymrr6b--2Nm0-51" value="CANALES" style="shape=step;perimeter=stepPerimeter;whiteSpace=wrap;html=1;fixedSize=1;fillColor=#fff2cc;strokeColor=#d6b656;" parent="1" vertex="1">
          <mxGeometry x="-940" y="2174" width="180" height="80" as="geometry" />
        </mxCell>
        <mxCell id="d_LiT2keymrr6b--2Nm0-54" value="TCP/IP" style="text;html=1;strokeColor=default;fillColor=none;align=center;verticalAlign=middle;whiteSpace=wrap;rounded=0;strokeWidth=1;" parent="1" vertex="1">
          <mxGeometry x="771" y="1770" width="60" height="30" as="geometry" />
        </mxCell>
        <mxCell id="d_LiT2keymrr6b--2Nm0-59" style="edgeStyle=orthogonalEdgeStyle;rounded=0;orthogonalLoop=1;jettySize=auto;html=1;exitX=0.5;exitY=1;exitDx=0;exitDy=0;" parent="1" source="cpVLUIQBvUUd7k2zSbie-11" edge="1">
          <mxGeometry relative="1" as="geometry">
            <mxPoint x="811" y="1740" as="sourcePoint" />
            <mxPoint x="801" y="1770" as="targetPoint" />
            <Array as="points">
              <mxPoint x="801" y="1735" />
            </Array>
          </mxGeometry>
        </mxCell>
        <mxCell id="cpVLUIQBvUUd7k2zSbie-70" value="BDD Package" style="text;html=1;strokeColor=none;fillColor=none;align=center;verticalAlign=middle;whiteSpace=wrap;rounded=0;strokeWidth=2;fontColor=#081856;" parent="1" vertex="1">
          <mxGeometry x="-290" y="2003.7" width="60" height="30" as="geometry" />
        </mxCell>
        <mxCell id="cpVLUIQBvUUd7k2zSbie-68" value="" style="verticalLabelPosition=bottom;verticalAlign=top;html=1;shape=mxgraph.basic.polygon;polyCoords=[[0.25,0],[0.75,0],[1,0.25],[1,0.75],[0.75,1],[0.25,1],[0,0.75],[0,0.25]];polyline=0;strokeColor=#081856;strokeWidth=2;fontColor=#081856;fillColor=default;gradientColor=#FFFFFF;" parent="1" vertex="1">
          <mxGeometry x="-320" y="1873.7" width="120" height="120" as="geometry" />
        </mxCell>
        <mxCell id="cpVLUIQBvUUd7k2zSbie-69" value="" style="verticalLabelPosition=bottom;html=1;verticalAlign=top;align=center;strokeColor=none;fillColor=#081856;shape=mxgraph.azure.cloud_service_package_file;strokeWidth=2;fontColor=#081856;" parent="1" vertex="1">
          <mxGeometry x="-290.74399999999986" y="1897.7" width="61.5" height="72" as="geometry" />
        </mxCell>
      </root>
    </mxGraphModel>
  </diagram>
  <diagram id="-C2ixMeedz6FQhcrF-e3" name="TOBE">
    <mxGraphModel dx="1965" dy="1075" grid="1" gridSize="10" guides="1" tooltips="1" connect="1" arrows="1" fold="1" page="1" pageScale="1" pageWidth="850" pageHeight="1100" math="0" shadow="0">
      <root>
        <mxCell id="0" />
        <mxCell id="1" parent="0" />
        <mxCell id="-2GKZBbyBp1yMccN1F-R-1" value="INTRANET" style="rounded=1;whiteSpace=wrap;html=1;strokeWidth=0;gradientDirection=south;verticalAlign=top;strokeColor=default;fontStyle=1" parent="1" vertex="1">
          <mxGeometry x="1470" y="1284" width="1860" height="1066" as="geometry" />
        </mxCell>
        <mxCell id="JTdgcMHgrWfb0Qp9r0Pv-6" value="" style="group" parent="1" vertex="1" connectable="0">
          <mxGeometry x="1566" y="2060.7" width="1175" height="269.3000000000002" as="geometry" />
        </mxCell>
        <mxCell id="-2GKZBbyBp1yMccN1F-R-10" value="" style="rounded=1;whiteSpace=wrap;html=1;strokeColor=default;strokeWidth=1;fontColor=#081856;fillColor=#FFFFFF;gradientColor=none;gradientDirection=south;" parent="JTdgcMHgrWfb0Qp9r0Pv-6" vertex="1">
          <mxGeometry width="1175" height="224.3" as="geometry" />
        </mxCell>
        <mxCell id="-2GKZBbyBp1yMccN1F-R-83" value="BANCS BDD" style="text;html=1;strokeColor=none;fillColor=none;align=center;verticalAlign=middle;whiteSpace=wrap;rounded=0;strokeWidth=1;fontColor=#081856;fontStyle=1" parent="JTdgcMHgrWfb0Qp9r0Pv-6" vertex="1">
          <mxGeometry x="526.5" y="239.30000000000018" width="122" height="30" as="geometry" />
        </mxCell>
        <mxCell id="An5lxiKNAN4W55-uz4du-2" style="edgeStyle=orthogonalEdgeStyle;rounded=0;orthogonalLoop=1;jettySize=auto;html=1;startArrow=classic;startFill=1;" parent="1" source="-2GKZBbyBp1yMccN1F-R-2" target="-2GKZBbyBp1yMccN1F-R-116" edge="1">
          <mxGeometry relative="1" as="geometry" />
        </mxCell>
        <mxCell id="-2GKZBbyBp1yMccN1F-R-2" value="" style="rounded=1;whiteSpace=wrap;html=1;strokeColor=default;strokeWidth=1;fontColor=#081856;fillColor=#FFFFFF;gradientColor=none;gradientDirection=south;" parent="1" vertex="1">
          <mxGeometry x="1530" y="1480" width="1245" height="320" as="geometry" />
        </mxCell>
        <mxCell id="-2GKZBbyBp1yMccN1F-R-4" value="" style="rounded=0;whiteSpace=wrap;html=1;strokeColor=#FFD966;strokeWidth=3;fontColor=#081856;fillColor=none;gradientColor=none;gradientDirection=south;" parent="1" vertex="1">
          <mxGeometry x="1450" y="1330" width="1930" height="500" as="geometry" />
        </mxCell>
        <mxCell id="-2GKZBbyBp1yMccN1F-R-5" value="" style="rounded=1;whiteSpace=wrap;html=1;strokeColor=#081856;strokeWidth=1;fontColor=#081856;fillColor=none;gradientColor=none;gradientDirection=south;" parent="1" vertex="1">
          <mxGeometry x="2210" y="1520" width="1000" height="230" as="geometry" />
        </mxCell>
        <mxCell id="-2GKZBbyBp1yMccN1F-R-6" value="Microbat operaciones" style="sketch=0;aspect=fixed;html=1;points=[];align=center;image;fontSize=12;image=img/lib/mscae/VirtualMachineWindows.svg;strokeColor=#081856;strokeWidth=2;fillColor=#081856;gradientColor=#081856;" parent="1" vertex="1">
          <mxGeometry x="1910" y="1596.76" width="82.61" height="76" as="geometry" />
        </mxCell>
        <mxCell id="-2GKZBbyBp1yMccN1F-R-7" value="DMZ" style="rounded=1;whiteSpace=wrap;html=1;strokeColor=#36393d;strokeWidth=1;fillColor=#cce5ff;gradientDirection=south;verticalAlign=top;fontStyle=1" parent="1" vertex="1">
          <mxGeometry x="1470" y="1055" width="1860" height="225" as="geometry" />
        </mxCell>
        <mxCell id="-2GKZBbyBp1yMccN1F-R-8" value="" style="rounded=1;whiteSpace=wrap;html=1;strokeColor=#FFD966;strokeWidth=3;fontColor=#081856;fillColor=#FFFFFF;gradientColor=none;gradientDirection=south;" parent="1" vertex="1">
          <mxGeometry x="1489" y="1089" width="1780" height="125" as="geometry" />
        </mxCell>
        <mxCell id="-2GKZBbyBp1yMccN1F-R-9" value="&lt;b&gt;INTERNET&lt;/b&gt;" style="rounded=1;whiteSpace=wrap;html=1;strokeColor=#36393d;strokeWidth=1;fillColor=#cce5ff;gradientDirection=south;verticalAlign=top;" parent="1" vertex="1">
          <mxGeometry x="1470" y="710" width="1860" height="320" as="geometry" />
        </mxCell>
        <mxCell id="-2GKZBbyBp1yMccN1F-R-11" value="" style="rounded=1;whiteSpace=wrap;html=1;strokeColor=#36393d;strokeWidth=1;fillColor=#cce5ff;gradientDirection=south;" parent="1" vertex="1">
          <mxGeometry x="2245" y="1574.7" width="501" height="160" as="geometry" />
        </mxCell>
        <mxCell id="-2GKZBbyBp1yMccN1F-R-12" value="" style="rounded=1;whiteSpace=wrap;html=1;strokeColor=#36393d;strokeWidth=1;fillColor=#cce5ff;gradientDirection=south;" parent="1" vertex="1">
          <mxGeometry x="2800" y="1574.7" width="400" height="160" as="geometry" />
        </mxCell>
        <mxCell id="-2GKZBbyBp1yMccN1F-R-13" value="" style="rounded=1;whiteSpace=wrap;html=1;strokeColor=#FFD966;strokeWidth=3;fontColor=#081856;fillColor=#FFFFFF;gradientColor=none;gradientDirection=south;" parent="1" vertex="1">
          <mxGeometry x="1490" y="749" width="1779" height="130" as="geometry" />
        </mxCell>
        <mxCell id="-2GKZBbyBp1yMccN1F-R-14" value="" style="rounded=1;whiteSpace=wrap;html=1;strokeColor=#FFD966;strokeWidth=3;fontColor=#081856;fillColor=#FFFFFF;gradientColor=none;gradientDirection=south;" parent="1" vertex="1">
          <mxGeometry x="1490" y="889" width="1780" height="130" as="geometry" />
        </mxCell>
        <mxCell id="-2GKZBbyBp1yMccN1F-R-15" value="deUna!" style="shape=image;verticalLabelPosition=bottom;labelBackgroundColor=default;verticalAlign=top;aspect=fixed;imageAspect=0;image=https://play-lh.googleusercontent.com/kbyMfEeE5B6l1ZA0WFrPxrhWWjpSeoI-BFYsonXoXiZVYmYu1xVjGyRGfQJRVQGK8Ik=w600-h300-pc0xffffff-pd;" parent="1" vertex="1">
          <mxGeometry x="3031" y="771" width="152" height="76" as="geometry" />
        </mxCell>
        <mxCell id="-2GKZBbyBp1yMccN1F-R-16" value="Cliente movil" style="sketch=0;outlineConnect=0;fontColor=#232F3E;gradientColor=none;fillColor=#232F3D;strokeColor=none;dashed=0;verticalLabelPosition=bottom;verticalAlign=top;align=center;html=1;fontSize=12;fontStyle=0;aspect=fixed;pointerEvents=1;shape=mxgraph.aws4.mobile_client;strokeWidth=2;" parent="1" vertex="1">
          <mxGeometry x="2989" y="769" width="39.94" height="76" as="geometry" />
        </mxCell>
        <mxCell id="-2GKZBbyBp1yMccN1F-R-17" value="Aplicaciones&lt;br&gt;&amp;nbsp;de terceros" style="sketch=0;aspect=fixed;pointerEvents=1;shadow=0;dashed=0;html=1;strokeColor=#081856;labelPosition=center;verticalLabelPosition=bottom;verticalAlign=top;align=center;fillColor=#081856;shape=mxgraph.azure.cloud;strokeWidth=2;" parent="1" vertex="1">
          <mxGeometry x="2925.2" y="900.0000000000001" width="118.7" height="76" as="geometry" />
        </mxCell>
        <mxCell id="-2GKZBbyBp1yMccN1F-R-18" value="" style="group" parent="1" vertex="1" connectable="0">
          <mxGeometry x="3189" y="771" width="70" height="76" as="geometry" />
        </mxCell>
        <mxCell id="-2GKZBbyBp1yMccN1F-R-19" value="" style="group;strokeColor=none;container=0;" parent="-2GKZBbyBp1yMccN1F-R-18" vertex="1" connectable="0">
          <mxGeometry width="67.74193548387098" height="71.52941176470588" as="geometry" />
        </mxCell>
        <mxCell id="-2GKZBbyBp1yMccN1F-R-20" value="CNB juridico" style="verticalLabelPosition=bottom;verticalAlign=top;html=1;shape=mxgraph.basic.polygon;polyCoords=[[0.25,0],[0.75,0],[1,0.25],[1,0.75],[0.75,1],[0.25,1],[0,0.75],[0,0.25]];polyline=0;strokeColor=#081856;strokeWidth=2;fillColor=#FFFFFF;" parent="-2GKZBbyBp1yMccN1F-R-18" vertex="1">
          <mxGeometry x="2.2580645161290325" y="4.470588235294118" width="67.74193548387098" height="71.52941176470588" as="geometry" />
        </mxCell>
        <mxCell id="-2GKZBbyBp1yMccN1F-R-21" value="" style="rounded=0;whiteSpace=wrap;html=1;strokeColor=#081856;strokeWidth=2;fillColor=#081856;" parent="-2GKZBbyBp1yMccN1F-R-18" vertex="1">
          <mxGeometry x="45.16129032258065" y="11.92156862745098" width="11.290322580645162" height="11.92156862745098" as="geometry" />
        </mxCell>
        <mxCell id="-2GKZBbyBp1yMccN1F-R-22" value="" style="rounded=0;whiteSpace=wrap;html=1;strokeColor=#081856;strokeWidth=2;fillColor=#081856;" parent="-2GKZBbyBp1yMccN1F-R-18" vertex="1">
          <mxGeometry x="45.16129032258065" y="29.80392156862745" width="11.290322580645162" height="11.92156862745098" as="geometry" />
        </mxCell>
        <mxCell id="-2GKZBbyBp1yMccN1F-R-23" value="" style="rounded=0;whiteSpace=wrap;html=1;strokeColor=#081856;strokeWidth=2;fillColor=#081856;" parent="-2GKZBbyBp1yMccN1F-R-18" vertex="1">
          <mxGeometry x="28.225806451612907" y="29.80392156862745" width="11.290322580645162" height="11.92156862745098" as="geometry" />
        </mxCell>
        <mxCell id="-2GKZBbyBp1yMccN1F-R-24" value="" style="rounded=0;whiteSpace=wrap;html=1;strokeColor=#081856;strokeWidth=2;fillColor=#081856;" parent="-2GKZBbyBp1yMccN1F-R-18" vertex="1">
          <mxGeometry x="11.290322580645162" y="29.80392156862745" width="11.290322580645162" height="11.92156862745098" as="geometry" />
        </mxCell>
        <mxCell id="-2GKZBbyBp1yMccN1F-R-25" value="" style="rounded=0;whiteSpace=wrap;html=1;strokeColor=#081856;strokeWidth=2;fillColor=#081856;" parent="-2GKZBbyBp1yMccN1F-R-18" vertex="1">
          <mxGeometry x="45.16129032258065" y="47.68627450980392" width="11.290322580645162" height="11.92156862745098" as="geometry" />
        </mxCell>
        <mxCell id="-2GKZBbyBp1yMccN1F-R-26" value="" style="rounded=0;whiteSpace=wrap;html=1;strokeColor=#081856;strokeWidth=2;fillColor=#081856;" parent="-2GKZBbyBp1yMccN1F-R-18" vertex="1">
          <mxGeometry x="28.225806451612907" y="47.68627450980392" width="11.290322580645162" height="11.92156862745098" as="geometry" />
        </mxCell>
        <mxCell id="-2GKZBbyBp1yMccN1F-R-27" value="" style="rounded=0;whiteSpace=wrap;html=1;strokeColor=#081856;strokeWidth=2;fillColor=#081856;" parent="-2GKZBbyBp1yMccN1F-R-18" vertex="1">
          <mxGeometry x="11.290322580645162" y="47.68627450980392" width="11.290322580645162" height="11.92156862745098" as="geometry" />
        </mxCell>
        <mxCell id="-2GKZBbyBp1yMccN1F-R-28" style="edgeStyle=orthogonalEdgeStyle;rounded=0;orthogonalLoop=1;jettySize=auto;html=1;entryX=0.5;entryY=0;entryDx=0;entryDy=0;entryPerimeter=0;strokeWidth=2;fontColor=#081856;startArrow=classic;startFill=1;" parent="1" source="-2GKZBbyBp1yMccN1F-R-29" target="-2GKZBbyBp1yMccN1F-R-31" edge="1">
          <mxGeometry relative="1" as="geometry" />
        </mxCell>
        <mxCell id="-2GKZBbyBp1yMccN1F-R-29" value="&lt;span style=&quot;font-weight: normal;&quot;&gt;Apigee API&lt;br&gt;Platform&lt;/span&gt;" style="sketch=0;html=1;verticalAlign=top;labelPosition=center;verticalLabelPosition=bottom;align=center;spacingTop=-6;fontSize=11;fontStyle=1;fontColor=#081856;shape=image;aspect=fixed;imageAspect=0;image=data:image/svg+xml,PHN2ZyB4bWxucz0iaHR0cDovL3d3dy53My5vcmcvMjAwMC9zdmciIHhtbG5zOnY9Imh0dHBzOi8vdmVjdGEuaW8vbmFubyIgd2lkdGg9IjIwLjE4MDIzMTA5NDM2MDM1IiBoZWlnaHQ9IjIwLjE4MDIwODIwNjE3Njc1OCIgdmlld0JveD0iLTAuMDAwMTE1MTY1MTIzMTMzOTIwMTMgLTAuMDAwMTAzMzQ0NDkzMjU0NTUzNTMgMjAuMTgwMjMxMDk0MzYwMzUgMjAuMTgwMjA4MjA2MTc2NzU4Ij4mI3hhOwk8c3R5bGUgdHlwZT0idGV4dC9jc3MiPiYjeGE7CS5zdDB7ZmlsbDojNjY5ZGY2O2ZpbGwtcnVsZTpldmVub2RkfSYjeGE7CS5zdDF7ZmlsbC1ydWxlOmV2ZW5vZGQ7ZmlsbDojNDI4NWY0fSYjeGE7CTwvc3R5bGU+JiN4YTsJPHBhdGggY2xhc3M9InN0MCIgZD0iTTMuMjkgMTAuMDlsMS4zMi0xLjMyLTEuNzktMS43OWEyLjk0IDIuOTQgMCAwIDEgMi4wOC01IDIuOTIgMi45MiAwIDAgMSAyLjA3Ljg2bDEuOCAxLjc5IDEuMzItMS4zNEw4LjMgMS41YTQuODEgNC44MSAwIDEgMC02LjggNi44em0xMy42IDBsLTEuMzIgMS4zMiAxLjc5IDEuOGEyLjk0IDIuOTQgMCAwIDEtNC4xNiA0LjE1bC0xLjc5LTEuNzktMS4zMiAxLjMyIDEuNzkgMS43OWE0LjgxIDQuODEgMCAxIDAgNi44LTYuOHoiLz4mI3hhOwk8cGF0aCBjbGFzcz0ic3QxIiBkPSJNNi45OCAxNy4zNmEyLjk0IDIuOTQgMCAxIDEtNC4xNi00LjE2bDEuNzktMS43OSA0LjE2IDQuMTZ6bTYuMjMtMTQuNTRhMi45MyAyLjkzIDAgMCAxIDUgMi4wOCAzIDMgMCAwIDEtLjg2IDIuMDhsLTEuNzkgMS43OS00LjE1LTQuMTZ6bS0zLjEyIDEwLjQ2YTMuMiAzLjIgMCAwIDEtMy4xOS0zLjE5aDBhMy4yMSAzLjIxIDAgMCAxIDMuMTktMy4xOWgwYTMuMjEgMy4yMSAwIDAgMSAzLjE5IDMuMTloMGEzLjIgMy4yIDAgMCAxLTMuMTkgMy4xOXptNi44LTMuMTlsMS43OS0xLjc5QTQuODEgNC44MSAwIDAgMCAxNi41NzQuMTUzIDQuODEgNC44MSAwIDAgMCAxMS44OCAxLjVsLTEuNzkgMS43OS02LjggNi44LTEuNzkgMS43OWE0LjgxIDQuODEgMCAwIDAgMi4xMDYgOC4xNDdBNC44MSA0LjgxIDAgMCAwIDguMyAxOC42OGwxLjc5LTEuNzl6Ii8+JiN4YTs8L3N2Zz4=;strokeColor=default;strokeWidth=2;fillColor=#FFFFFF;" parent="1" vertex="1">
          <mxGeometry x="3171" y="901.8" width="76" height="76" as="geometry" />
        </mxCell>
        <mxCell id="-2GKZBbyBp1yMccN1F-R-30" style="edgeStyle=orthogonalEdgeStyle;rounded=0;orthogonalLoop=1;jettySize=auto;html=1;entryX=0.5;entryY=0;entryDx=0;entryDy=0;entryPerimeter=0;strokeWidth=2;fontColor=#081856;startArrow=classic;startFill=1;" parent="1" source="-2GKZBbyBp1yMccN1F-R-31" target="-2GKZBbyBp1yMccN1F-R-33" edge="1">
          <mxGeometry relative="1" as="geometry" />
        </mxCell>
        <mxCell id="-2GKZBbyBp1yMccN1F-R-31" value="Data power externo" style="sketch=0;points=[[0,0,0],[0.25,0,0],[0.5,0,0],[0.75,0,0],[1,0,0],[0,1,0],[0.25,1,0],[0.5,1,0],[0.75,1,0],[1,1,0],[0,0.25,0],[0,0.5,0],[0,0.75,0],[1,0.25,0],[1,0.5,0],[1,0.75,0]];outlineConnect=0;fontColor=#232F3E;gradientColor=#081856;gradientDirection=north;fillColor=#081856;strokeColor=#ffffff;dashed=0;verticalLabelPosition=bottom;verticalAlign=top;align=center;html=1;fontSize=12;fontStyle=0;aspect=fixed;shape=mxgraph.aws4.resourceIcon;resIcon=mxgraph.aws4.api_gateway;strokeWidth=2;" parent="1" vertex="1">
          <mxGeometry x="3171" y="1112.17" width="76" height="76" as="geometry" />
        </mxCell>
        <mxCell id="-2GKZBbyBp1yMccN1F-R-32" style="edgeStyle=orthogonalEdgeStyle;rounded=0;orthogonalLoop=1;jettySize=auto;html=1;entryX=0.5;entryY=0;entryDx=0;entryDy=0;strokeWidth=2;fontColor=#0050A1;startArrow=classic;startFill=1;" parent="1" source="-2GKZBbyBp1yMccN1F-R-33" target="-2GKZBbyBp1yMccN1F-R-76" edge="1">
          <mxGeometry relative="1" as="geometry" />
        </mxCell>
        <mxCell id="-2GKZBbyBp1yMccN1F-R-33" value="Data power interno" style="sketch=0;points=[[0,0,0],[0.25,0,0],[0.5,0,0],[0.75,0,0],[1,0,0],[0,1,0],[0.25,1,0],[0.5,1,0],[0.75,1,0],[1,1,0],[0,0.25,0],[0,0.5,0],[0,0.75,0],[1,0.25,0],[1,0.5,0],[1,0.75,0]];outlineConnect=0;fontColor=#232F3E;gradientColor=#081856;gradientDirection=north;fillColor=#081856;strokeColor=#ffffff;dashed=0;verticalLabelPosition=bottom;verticalAlign=top;align=center;html=1;fontSize=12;fontStyle=0;aspect=fixed;shape=mxgraph.aws4.resourceIcon;resIcon=mxgraph.aws4.api_gateway;strokeWidth=2;" parent="1" vertex="1">
          <mxGeometry x="3170" y="1295.2" width="76" height="76" as="geometry" />
        </mxCell>
        <mxCell id="-2GKZBbyBp1yMccN1F-R-35" value="Legacies" style="sketch=0;aspect=fixed;pointerEvents=1;shadow=0;dashed=0;html=1;strokeColor=none;labelPosition=center;verticalLabelPosition=bottom;verticalAlign=top;align=center;fillColor=#081856;shape=mxgraph.mscae.enterprise.windows_server;strokeWidth=2;" parent="1" vertex="1">
          <mxGeometry x="1600" y="1596.76" width="59.28" height="76" as="geometry" />
        </mxCell>
        <mxCell id="-2GKZBbyBp1yMccN1F-R-37" value="" style="shape=image;verticalLabelPosition=bottom;labelBackgroundColor=default;verticalAlign=top;aspect=fixed;imageAspect=0;image=https://upload.wikimedia.org/wikipedia/en/5/56/WSO2_Software_Logo.png;" parent="1" vertex="1">
          <mxGeometry x="1700" y="1589.76" width="168.89" height="76" as="geometry" />
        </mxCell>
        <mxCell id="-2GKZBbyBp1yMccN1F-R-40" value="" style="shape=image;verticalLabelPosition=bottom;labelBackgroundColor=default;verticalAlign=top;aspect=fixed;imageAspect=0;image=https://www.angioni.nl/wp-content/uploads/2019/01/IBM-WAS-Portal.png;" parent="1" vertex="1">
          <mxGeometry x="2040" y="1598.7" width="76" height="76" as="geometry" />
        </mxCell>
        <mxCell id="-2GKZBbyBp1yMccN1F-R-41" style="edgeStyle=orthogonalEdgeStyle;rounded=0;orthogonalLoop=1;jettySize=auto;html=1;strokeWidth=2;fontColor=#081856;startArrow=classic;startFill=1;" parent="1" source="-2GKZBbyBp1yMccN1F-R-42" edge="1">
          <mxGeometry relative="1" as="geometry">
            <mxPoint x="2611" y="1480" as="targetPoint" />
          </mxGeometry>
        </mxCell>
        <mxCell id="-2GKZBbyBp1yMccN1F-R-42" value="Legacies" style="sketch=0;aspect=fixed;pointerEvents=1;shadow=0;dashed=0;html=1;strokeColor=none;labelPosition=center;verticalLabelPosition=bottom;verticalAlign=top;align=center;fillColor=#081856;shape=mxgraph.mscae.enterprise.windows_server;strokeWidth=2;" parent="1" vertex="1">
          <mxGeometry x="2581" y="1341.2" width="59.28" height="76" as="geometry" />
        </mxCell>
        <mxCell id="-2GKZBbyBp1yMccN1F-R-43" value="Notificador" style="shape=image;verticalLabelPosition=bottom;labelBackgroundColor=none;verticalAlign=top;aspect=fixed;imageAspect=0;image=https://www.midvision.com/crane/wp-content/uploads/2017/11/WAS-AS.png;" parent="1" vertex="1">
          <mxGeometry x="2316.08" y="1604.7" width="76" height="76" as="geometry" />
        </mxCell>
        <mxCell id="-2GKZBbyBp1yMccN1F-R-44" value="Omnicanal" style="shape=image;verticalLabelPosition=bottom;labelBackgroundColor=none;verticalAlign=top;aspect=fixed;imageAspect=0;image=https://www.midvision.com/crane/wp-content/uploads/2017/11/WAS-AS.png;" parent="1" vertex="1">
          <mxGeometry x="2440" y="1604.7" width="76" height="76" as="geometry" />
        </mxCell>
        <mxCell id="-2GKZBbyBp1yMccN1F-R-45" value="" style="shape=image;verticalLabelPosition=bottom;labelBackgroundColor=default;verticalAlign=top;aspect=fixed;imageAspect=0;image=https://cdn.mindmajix.com/courses/websphere-process-server-training.png;" parent="1" vertex="1">
          <mxGeometry x="2563" y="1604.78" width="126.67" height="76" as="geometry" />
        </mxCell>
        <mxCell id="-2GKZBbyBp1yMccN1F-R-46" value="IBM BUS&lt;br&gt;Soporte" style="aspect=fixed;perimeter=ellipsePerimeter;html=1;align=center;shadow=0;dashed=0;fontColor=#081856;labelBackgroundColor=#ffffff;fontSize=12;spacingTop=3;image;image=img/lib/ibm/blockchain/message_bus.svg;strokeColor=#081856;strokeWidth=2;fillColor=none;gradientColor=#081856;" parent="1" vertex="1">
          <mxGeometry x="2735" y="1603.78" width="76" height="76" as="geometry" />
        </mxCell>
        <mxCell id="-2GKZBbyBp1yMccN1F-R-47" value="Message&lt;br&gt;&amp;nbsp;processor" style="sketch=0;aspect=fixed;pointerEvents=1;shadow=0;dashed=0;html=1;strokeColor=none;labelPosition=center;verticalLabelPosition=bottom;verticalAlign=top;align=center;fillColor=#081856;shape=mxgraph.mscae.enterprise.windows_server;strokeWidth=2;" parent="1" vertex="1">
          <mxGeometry x="2867" y="1604.29" width="59.28" height="76" as="geometry" />
        </mxCell>
        <mxCell id="-2GKZBbyBp1yMccN1F-R-48" value="Openshift" style="sketch=0;aspect=fixed;html=1;points=[];align=center;image;fontSize=12;image=img/lib/mscae/OpenShift.svg;strokeColor=default;strokeWidth=2;fillColor=default;gradientColor=#081856;labelBackgroundColor=none;shadow=0;dashed=0;spacingTop=3;" parent="1" vertex="1">
          <mxGeometry x="3101.02" y="1604.3999999999999" width="82.6" height="76" as="geometry" />
        </mxCell>
        <mxCell id="-2GKZBbyBp1yMccN1F-R-49" value="" style="group" parent="1" vertex="1" connectable="0">
          <mxGeometry x="2180" y="2100" width="94.8599999999999" height="170" as="geometry" />
        </mxCell>
        <mxCell id="-2GKZBbyBp1yMccN1F-R-50" value="" style="strokeWidth=2;html=1;shape=mxgraph.flowchart.database;whiteSpace=wrap;strokeColor=#FFFFFF;fontColor=#081856;fillColor=#081856;gradientColor=none;" parent="-2GKZBbyBp1yMccN1F-R-49" vertex="1">
          <mxGeometry width="94.86" height="130" as="geometry" />
        </mxCell>
        <mxCell id="-2GKZBbyBp1yMccN1F-R-51" value="BDD Bancs" style="text;html=1;strokeColor=none;fillColor=none;align=center;verticalAlign=middle;whiteSpace=wrap;rounded=0;strokeWidth=2;fontColor=#081856;" parent="-2GKZBbyBp1yMccN1F-R-49" vertex="1">
          <mxGeometry x="17.430000000000064" y="140" width="60" height="30" as="geometry" />
        </mxCell>
        <mxCell id="-2GKZBbyBp1yMccN1F-R-52" value="Cliente Web" style="sketch=0;outlineConnect=0;gradientColor=none;fontColor=#545B64;strokeColor=none;fillColor=#879196;dashed=0;verticalLabelPosition=bottom;verticalAlign=top;align=center;html=1;fontSize=12;fontStyle=0;aspect=fixed;shape=mxgraph.aws4.illustration_devices;pointerEvents=1;strokeWidth=2;" parent="1" vertex="1">
          <mxGeometry x="2841.02" y="769" width="104.11" height="76" as="geometry" />
        </mxCell>
        <mxCell id="-2GKZBbyBp1yMccN1F-R-53" value="" style="group" parent="1" vertex="1" connectable="0">
          <mxGeometry x="3070" y="901.8" width="80" height="98.20000000000005" as="geometry" />
        </mxCell>
        <mxCell id="-2GKZBbyBp1yMccN1F-R-54" value="" style="group" parent="-2GKZBbyBp1yMccN1F-R-53" vertex="1" connectable="0">
          <mxGeometry width="80" height="76" as="geometry" />
        </mxCell>
        <mxCell id="-2GKZBbyBp1yMccN1F-R-55" value="" style="group" parent="-2GKZBbyBp1yMccN1F-R-54" vertex="1" connectable="0">
          <mxGeometry x="-1.1428571428571428" width="80.00000000000006" height="76" as="geometry" />
        </mxCell>
        <mxCell id="-2GKZBbyBp1yMccN1F-R-56" value="" style="verticalLabelPosition=bottom;verticalAlign=top;html=1;shape=mxgraph.basic.polygon;polyCoords=[[0.25,0],[0.75,0],[1,0.25],[1,0.75],[0.75,1],[0.25,1],[0,0.75],[0,0.25]];polyline=0;strokeColor=#081856;strokeWidth=1;fontColor=#081856;fillColor=#FFFFFF;gradientColor=none;" parent="-2GKZBbyBp1yMccN1F-R-55" vertex="1">
          <mxGeometry width="80.00000000000006" height="76" as="geometry" />
        </mxCell>
        <mxCell id="-2GKZBbyBp1yMccN1F-R-57" value="" style="shape=image;html=1;verticalAlign=top;verticalLabelPosition=bottom;labelBackgroundColor=#ffffff;imageAspect=0;aspect=fixed;image=https://cdn1.iconfinder.com/data/icons/ui-essential-17/32/UI_Essential_Outline_1_essential-app-ui-internet-word-128.png;strokeColor=#FFFFFF;strokeWidth=1;fontColor=#081856;fillColor=#081856;gradientColor=none;gradientDirection=south;" parent="-2GKZBbyBp1yMccN1F-R-55" vertex="1">
          <mxGeometry x="15.32142857142857" y="13.316285714285716" width="49.36051948051948" height="49.36051948051948" as="geometry" />
        </mxCell>
        <mxCell id="-2GKZBbyBp1yMccN1F-R-58" value="BancaWeb" style="text;html=1;strokeColor=none;fillColor=none;align=center;verticalAlign=middle;whiteSpace=wrap;rounded=0;strokeWidth=1;fontColor=#081856;" parent="-2GKZBbyBp1yMccN1F-R-53" vertex="1">
          <mxGeometry x="10" y="68.20000000000005" width="60" height="30" as="geometry" />
        </mxCell>
        <mxCell id="-2GKZBbyBp1yMccN1F-R-59" style="edgeStyle=orthogonalEdgeStyle;rounded=0;orthogonalLoop=1;jettySize=auto;html=1;exitX=0;exitY=0.5;exitDx=0;exitDy=0;strokeWidth=2;fontColor=#081856;startArrow=classic;startFill=1;entryX=1;entryY=0.5;entryDx=0;entryDy=0;" parent="1" source="-2GKZBbyBp1yMccN1F-R-63" target="-2GKZBbyBp1yMccN1F-R-116" edge="1">
          <mxGeometry relative="1" as="geometry">
            <mxPoint x="2409" y="2193.8500000000004" as="targetPoint" />
          </mxGeometry>
        </mxCell>
        <mxCell id="-2GKZBbyBp1yMccN1F-R-66" value="Orquestadores BDD" style="text;html=1;strokeColor=none;fillColor=none;align=center;verticalAlign=middle;whiteSpace=wrap;rounded=0;strokeWidth=1;fontColor=#081856;fontStyle=1" parent="1" vertex="1">
          <mxGeometry x="2448" y="1540" width="122" height="30" as="geometry" />
        </mxCell>
        <mxCell id="-2GKZBbyBp1yMccN1F-R-67" value="Orquestadores APP" style="text;html=1;strokeColor=none;fillColor=none;align=center;verticalAlign=middle;whiteSpace=wrap;rounded=0;strokeWidth=1;fontColor=#081856;fontStyle=1" parent="1" vertex="1">
          <mxGeometry x="2923.5499999999997" y="1540" width="122" height="30" as="geometry" />
        </mxCell>
        <mxCell id="-2GKZBbyBp1yMccN1F-R-68" value="Integración de servicios" style="text;html=1;strokeColor=none;fillColor=none;align=center;verticalAlign=middle;whiteSpace=wrap;rounded=0;strokeWidth=1;fontColor=#081856;fontStyle=1" parent="1" vertex="1">
          <mxGeometry x="2676.02" y="1490" width="165" height="30" as="geometry" />
        </mxCell>
        <mxCell id="-2GKZBbyBp1yMccN1F-R-73" value="" style="group" parent="1" vertex="1" connectable="0">
          <mxGeometry x="2951" y="1612" width="120" height="106" as="geometry" />
        </mxCell>
        <mxCell id="-2GKZBbyBp1yMccN1F-R-74" value="" style="aspect=fixed;perimeter=ellipsePerimeter;html=1;align=center;shadow=0;dashed=0;fontColor=default;labelBackgroundColor=none;fontSize=12;spacingTop=3;image;image=img/lib/ibm/blockchain/message_bus.svg;strokeColor=default;strokeWidth=2;fillColor=default;gradientColor=#081856;sketch=0;" parent="-2GKZBbyBp1yMccN1F-R-73" vertex="1">
          <mxGeometry x="22" width="76" height="76" as="geometry" />
        </mxCell>
        <mxCell id="-2GKZBbyBp1yMccN1F-R-75" value="&lt;span style=&quot;color: rgb(0, 0, 0);&quot;&gt;IBM omnichannel bus&lt;/span&gt;" style="text;html=1;strokeColor=none;fillColor=none;align=center;verticalAlign=middle;whiteSpace=wrap;rounded=0;labelBackgroundColor=none;sketch=0;strokeWidth=1;fontColor=#0050A1;" parent="-2GKZBbyBp1yMccN1F-R-73" vertex="1">
          <mxGeometry y="76" width="120" height="30" as="geometry" />
        </mxCell>
        <mxCell id="-2GKZBbyBp1yMccN1F-R-76" value="" style="ellipse;whiteSpace=wrap;html=1;aspect=fixed;labelBackgroundColor=none;sketch=0;strokeColor=none;strokeWidth=1;fontColor=#0050A1;fillColor=#FFFFFF;gradientColor=none;gradientDirection=south;" parent="1" vertex="1">
          <mxGeometry x="3193" y="1500" width="30" height="30" as="geometry" />
        </mxCell>
        <mxCell id="-2GKZBbyBp1yMccN1F-R-79" value="" style="rounded=1;whiteSpace=wrap;html=1;fillColor=none;" parent="1" vertex="1">
          <mxGeometry x="2711" y="1580" width="129" height="140" as="geometry" />
        </mxCell>
        <mxCell id="-2GKZBbyBp1yMccN1F-R-80" value="RED EXTERNA" style="rounded=1;whiteSpace=wrap;html=1;strokeColor=#36393d;strokeWidth=1;fillColor=#cce5ff;gradientDirection=south;verticalAlign=top;" parent="1" vertex="1">
          <mxGeometry x="1480" y="2368" width="1860" height="136" as="geometry" />
        </mxCell>
        <mxCell id="-2GKZBbyBp1yMccN1F-R-82" value="BANCS APP" style="text;html=1;strokeColor=none;fillColor=none;align=center;verticalAlign=middle;whiteSpace=wrap;rounded=0;strokeWidth=1;fontColor=#081856;fontStyle=1" parent="1" vertex="1">
          <mxGeometry x="2951" y="1829.9999999999998" width="122" height="30" as="geometry" />
        </mxCell>
        <mxCell id="-2GKZBbyBp1yMccN1F-R-84" style="edgeStyle=orthogonalEdgeStyle;rounded=0;orthogonalLoop=1;jettySize=auto;html=1;entryX=0.5;entryY=0;entryDx=0;entryDy=0;startArrow=classic;startFill=1;exitX=0.5;exitY=1;exitDx=0;exitDy=0;" parent="1" source="-2GKZBbyBp1yMccN1F-R-65" target="-2GKZBbyBp1yMccN1F-R-85" edge="1">
          <mxGeometry relative="1" as="geometry" />
        </mxCell>
        <mxCell id="-2GKZBbyBp1yMccN1F-R-85" value="" style="ellipse;whiteSpace=wrap;html=1;aspect=fixed;fillColor=none;strokeColor=none;" parent="1" vertex="1">
          <mxGeometry x="2967" y="2394" width="80" height="80" as="geometry" />
        </mxCell>
        <mxCell id="-2GKZBbyBp1yMccN1F-R-86" value="" style="group;strokeColor=none;" parent="1" vertex="1" connectable="0">
          <mxGeometry x="3121" y="2388" width="70" height="76" as="geometry" />
        </mxCell>
        <mxCell id="-2GKZBbyBp1yMccN1F-R-87" value="" style="group;strokeColor=none;container=0;" parent="-2GKZBbyBp1yMccN1F-R-86" vertex="1" connectable="0">
          <mxGeometry width="67.74193548387098" height="71.52941176470588" as="geometry" />
        </mxCell>
        <mxCell id="-2GKZBbyBp1yMccN1F-R-88" value="CNB personas" style="verticalLabelPosition=bottom;verticalAlign=top;html=1;shape=mxgraph.basic.polygon;polyCoords=[[0.25,0],[0.75,0],[1,0.25],[1,0.75],[0.75,1],[0.25,1],[0,0.75],[0,0.25]];polyline=0;strokeColor=#081856;strokeWidth=2;fillColor=#FFFFFF;" parent="-2GKZBbyBp1yMccN1F-R-86" vertex="1">
          <mxGeometry x="2.2580645161290325" y="4.470588235294118" width="67.74193548387098" height="71.52941176470588" as="geometry" />
        </mxCell>
        <mxCell id="-2GKZBbyBp1yMccN1F-R-89" value="" style="rounded=0;whiteSpace=wrap;html=1;strokeColor=#081856;strokeWidth=2;fillColor=#081856;" parent="-2GKZBbyBp1yMccN1F-R-86" vertex="1">
          <mxGeometry x="45.16129032258065" y="11.92156862745098" width="11.290322580645162" height="11.92156862745098" as="geometry" />
        </mxCell>
        <mxCell id="-2GKZBbyBp1yMccN1F-R-90" value="" style="rounded=0;whiteSpace=wrap;html=1;strokeColor=#081856;strokeWidth=2;fillColor=#081856;" parent="-2GKZBbyBp1yMccN1F-R-86" vertex="1">
          <mxGeometry x="45.16129032258065" y="29.80392156862745" width="11.290322580645162" height="11.92156862745098" as="geometry" />
        </mxCell>
        <mxCell id="-2GKZBbyBp1yMccN1F-R-91" value="" style="rounded=0;whiteSpace=wrap;html=1;strokeColor=#081856;strokeWidth=2;fillColor=#081856;" parent="-2GKZBbyBp1yMccN1F-R-86" vertex="1">
          <mxGeometry x="28.225806451612907" y="29.80392156862745" width="11.290322580645162" height="11.92156862745098" as="geometry" />
        </mxCell>
        <mxCell id="-2GKZBbyBp1yMccN1F-R-92" value="" style="rounded=0;whiteSpace=wrap;html=1;strokeColor=#081856;strokeWidth=2;fillColor=#081856;" parent="-2GKZBbyBp1yMccN1F-R-86" vertex="1">
          <mxGeometry x="11.290322580645162" y="29.80392156862745" width="11.290322580645162" height="11.92156862745098" as="geometry" />
        </mxCell>
        <mxCell id="-2GKZBbyBp1yMccN1F-R-93" value="" style="rounded=0;whiteSpace=wrap;html=1;strokeColor=#081856;strokeWidth=2;fillColor=#081856;" parent="-2GKZBbyBp1yMccN1F-R-86" vertex="1">
          <mxGeometry x="45.16129032258065" y="47.68627450980392" width="11.290322580645162" height="11.92156862745098" as="geometry" />
        </mxCell>
        <mxCell id="-2GKZBbyBp1yMccN1F-R-94" value="" style="rounded=0;whiteSpace=wrap;html=1;strokeColor=#081856;strokeWidth=2;fillColor=#081856;" parent="-2GKZBbyBp1yMccN1F-R-86" vertex="1">
          <mxGeometry x="28.225806451612907" y="47.68627450980392" width="11.290322580645162" height="11.92156862745098" as="geometry" />
        </mxCell>
        <mxCell id="-2GKZBbyBp1yMccN1F-R-95" value="" style="rounded=0;whiteSpace=wrap;html=1;strokeColor=#081856;strokeWidth=2;fillColor=#081856;" parent="-2GKZBbyBp1yMccN1F-R-86" vertex="1">
          <mxGeometry x="11.290322580645162" y="47.68627450980392" width="11.290322580645162" height="11.92156862745098" as="geometry" />
        </mxCell>
        <mxCell id="0OHCUWeCPXiJQQ2fVS1a-15" value="" style="ellipse;whiteSpace=wrap;html=1;aspect=fixed;rounded=0;strokeColor=none;strokeWidth=1;fontSize=31;fillColor=none;" parent="-2GKZBbyBp1yMccN1F-R-86" vertex="1">
          <mxGeometry x="21.159999999999854" y="4.4699999999998" width="24" height="24" as="geometry" />
        </mxCell>
        <mxCell id="-2GKZBbyBp1yMccN1F-R-96" value="" style="group" parent="1" vertex="1" connectable="0">
          <mxGeometry x="2970" y="2390" width="70" height="76" as="geometry" />
        </mxCell>
        <mxCell id="-2GKZBbyBp1yMccN1F-R-97" value="" style="group;strokeColor=none;container=0;" parent="-2GKZBbyBp1yMccN1F-R-96" vertex="1" connectable="0">
          <mxGeometry width="67.74193548387098" height="71.52941176470588" as="geometry" />
        </mxCell>
        <mxCell id="-2GKZBbyBp1yMccN1F-R-98" value="ATMs" style="verticalLabelPosition=bottom;verticalAlign=top;html=1;shape=mxgraph.basic.polygon;polyCoords=[[0.25,0],[0.75,0],[1,0.25],[1,0.75],[0.75,1],[0.25,1],[0,0.75],[0,0.25]];polyline=0;strokeColor=#081856;strokeWidth=2;fillColor=#FFFFFF;" parent="-2GKZBbyBp1yMccN1F-R-96" vertex="1">
          <mxGeometry x="2.2580645161290325" y="4.470588235294118" width="67.74193548387098" height="71.52941176470588" as="geometry" />
        </mxCell>
        <mxCell id="-2GKZBbyBp1yMccN1F-R-99" value="" style="rounded=0;whiteSpace=wrap;html=1;strokeColor=#081856;strokeWidth=2;fillColor=#081856;" parent="-2GKZBbyBp1yMccN1F-R-96" vertex="1">
          <mxGeometry x="45.16129032258065" y="11.92156862745098" width="11.290322580645162" height="11.92156862745098" as="geometry" />
        </mxCell>
        <mxCell id="-2GKZBbyBp1yMccN1F-R-100" value="" style="rounded=0;whiteSpace=wrap;html=1;strokeColor=#081856;strokeWidth=2;fillColor=#081856;" parent="-2GKZBbyBp1yMccN1F-R-96" vertex="1">
          <mxGeometry x="45.16129032258065" y="29.80392156862745" width="11.290322580645162" height="11.92156862745098" as="geometry" />
        </mxCell>
        <mxCell id="-2GKZBbyBp1yMccN1F-R-101" value="" style="rounded=0;whiteSpace=wrap;html=1;strokeColor=#081856;strokeWidth=2;fillColor=#081856;" parent="-2GKZBbyBp1yMccN1F-R-96" vertex="1">
          <mxGeometry x="28.225806451612907" y="29.80392156862745" width="11.290322580645162" height="11.92156862745098" as="geometry" />
        </mxCell>
        <mxCell id="-2GKZBbyBp1yMccN1F-R-102" value="" style="rounded=0;whiteSpace=wrap;html=1;strokeColor=#081856;strokeWidth=2;fillColor=#081856;" parent="-2GKZBbyBp1yMccN1F-R-96" vertex="1">
          <mxGeometry x="11.290322580645162" y="29.80392156862745" width="11.290322580645162" height="11.92156862745098" as="geometry" />
        </mxCell>
        <mxCell id="-2GKZBbyBp1yMccN1F-R-103" value="" style="rounded=0;whiteSpace=wrap;html=1;strokeColor=#081856;strokeWidth=2;fillColor=#081856;" parent="-2GKZBbyBp1yMccN1F-R-96" vertex="1">
          <mxGeometry x="45.16129032258065" y="47.68627450980392" width="11.290322580645162" height="11.92156862745098" as="geometry" />
        </mxCell>
        <mxCell id="-2GKZBbyBp1yMccN1F-R-104" value="" style="rounded=0;whiteSpace=wrap;html=1;strokeColor=#081856;strokeWidth=2;fillColor=#081856;" parent="-2GKZBbyBp1yMccN1F-R-96" vertex="1">
          <mxGeometry x="28.225806451612907" y="47.68627450980392" width="11.290322580645162" height="11.92156862745098" as="geometry" />
        </mxCell>
        <mxCell id="-2GKZBbyBp1yMccN1F-R-105" value="" style="rounded=0;whiteSpace=wrap;html=1;strokeColor=#081856;strokeWidth=2;fillColor=#081856;" parent="-2GKZBbyBp1yMccN1F-R-96" vertex="1">
          <mxGeometry x="11.290322580645162" y="47.68627450980392" width="11.290322580645162" height="11.92156862745098" as="geometry" />
        </mxCell>
        <mxCell id="-2GKZBbyBp1yMccN1F-R-106" value="CANALES" style="shape=step;perimeter=stepPerimeter;whiteSpace=wrap;html=1;fixedSize=1;fillColor=#fff2cc;strokeColor=#d6b656;" parent="1" vertex="1">
          <mxGeometry x="1260" y="771" width="180" height="80" as="geometry" />
        </mxCell>
        <mxCell id="-2GKZBbyBp1yMccN1F-R-107" value="APLICACION NUBE" style="shape=step;perimeter=stepPerimeter;whiteSpace=wrap;html=1;fixedSize=1;fillColor=#fff2cc;strokeColor=#d6b656;" parent="1" vertex="1">
          <mxGeometry x="1260" y="910.9" width="180" height="80" as="geometry" />
        </mxCell>
        <mxCell id="-2GKZBbyBp1yMccN1F-R-108" value="APLICACION BANCO E INTEGRACIÓN" style="shape=step;perimeter=stepPerimeter;whiteSpace=wrap;html=1;fixedSize=1;fillColor=#fff2cc;strokeColor=#d6b656;" parent="1" vertex="1">
          <mxGeometry x="1260" y="1110.17" width="180" height="80" as="geometry" />
        </mxCell>
        <mxCell id="-2GKZBbyBp1yMccN1F-R-109" value="BACKEND" style="shape=step;perimeter=stepPerimeter;whiteSpace=wrap;html=1;fixedSize=1;fillColor=#fff2cc;strokeColor=#d6b656;" parent="1" vertex="1">
          <mxGeometry x="1260" y="1460" width="180" height="80" as="geometry" />
        </mxCell>
        <mxCell id="-2GKZBbyBp1yMccN1F-R-110" value="CANALES" style="shape=step;perimeter=stepPerimeter;whiteSpace=wrap;html=1;fixedSize=1;fillColor=#fff2cc;strokeColor=#d6b656;" parent="1" vertex="1">
          <mxGeometry x="1260" y="2388" width="180" height="80" as="geometry" />
        </mxCell>
        <mxCell id="-2GKZBbyBp1yMccN1F-R-111" value="TCP/IP" style="text;html=1;strokeColor=default;fillColor=none;align=center;verticalAlign=middle;whiteSpace=wrap;rounded=0;strokeWidth=1;" parent="1" vertex="1">
          <mxGeometry x="2971" y="1770" width="60" height="30" as="geometry" />
        </mxCell>
        <mxCell id="-2GKZBbyBp1yMccN1F-R-112" style="edgeStyle=orthogonalEdgeStyle;rounded=0;orthogonalLoop=1;jettySize=auto;html=1;exitX=0.5;exitY=1;exitDx=0;exitDy=0;" parent="1" source="-2GKZBbyBp1yMccN1F-R-12" edge="1">
          <mxGeometry relative="1" as="geometry">
            <mxPoint x="3011" y="1740" as="sourcePoint" />
            <mxPoint x="3001" y="1770" as="targetPoint" />
            <Array as="points">
              <mxPoint x="3001" y="1735" />
            </Array>
          </mxGeometry>
        </mxCell>
        <mxCell id="An5lxiKNAN4W55-uz4du-3" style="edgeStyle=orthogonalEdgeStyle;rounded=0;orthogonalLoop=1;jettySize=auto;html=1;startArrow=classic;startFill=1;" parent="1" source="-2GKZBbyBp1yMccN1F-R-116" target="-2GKZBbyBp1yMccN1F-R-10" edge="1">
          <mxGeometry relative="1" as="geometry" />
        </mxCell>
        <mxCell id="-2GKZBbyBp1yMccN1F-R-116" value="Capa de acceso a datos GATEWAY-REGISTRY(componente tecnico)" style="rounded=1;whiteSpace=wrap;html=1;strokeColor=#A50040;strokeWidth=1;fillColor=#d80073;fontColor=#ffffff;" parent="1" vertex="1">
          <mxGeometry x="1568" y="1931" width="1170" height="60" as="geometry" />
        </mxCell>
        <mxCell id="An5lxiKNAN4W55-uz4du-1" value="" style="group" parent="1" vertex="1" connectable="0">
          <mxGeometry x="2882.9999999999995" y="1866" width="246.7199999999998" height="190" as="geometry" />
        </mxCell>
        <mxCell id="-2GKZBbyBp1yMccN1F-R-63" value="" style="rounded=1;whiteSpace=wrap;html=1;strokeColor=#081856;strokeWidth=1;fontColor=#081856;fillColor=none;gradientColor=none;gradientDirection=south;" parent="An5lxiKNAN4W55-uz4du-1" vertex="1">
          <mxGeometry width="246.72" height="190" as="geometry" />
        </mxCell>
        <mxCell id="-2GKZBbyBp1yMccN1F-R-64" value="Capa app &lt;br&gt;(transaction)" style="sketch=0;pointerEvents=1;shadow=0;dashed=0;html=1;strokeColor=none;fillColor=#505050;labelPosition=center;verticalLabelPosition=bottom;verticalAlign=top;outlineConnect=0;align=center;shape=mxgraph.office.concepts.app_part;strokeWidth=2;fontColor=#081856;" parent="An5lxiKNAN4W55-uz4du-1" vertex="1">
          <mxGeometry x="74.73999999999978" y="5.467391304347757" width="99.99999999999999" height="97.82608695652173" as="geometry" />
        </mxCell>
        <mxCell id="-2GKZBbyBp1yMccN1F-R-65" value="TCP/IP" style="text;html=1;strokeColor=default;fillColor=none;align=center;verticalAlign=middle;whiteSpace=wrap;rounded=0;strokeWidth=1;" parent="An5lxiKNAN4W55-uz4du-1" vertex="1">
          <mxGeometry x="94.74000000000024" y="150.70334928229659" width="60" height="32.29665071770335" as="geometry" />
        </mxCell>
        <mxCell id="0OHCUWeCPXiJQQ2fVS1a-8" value="" style="group" parent="1" vertex="1" connectable="0">
          <mxGeometry x="790" y="1860" width="420" height="50" as="geometry" />
        </mxCell>
        <mxCell id="0OHCUWeCPXiJQQ2fVS1a-6" value="" style="rounded=1;whiteSpace=wrap;html=1;strokeColor=default;strokeWidth=1;fillColor=none;" parent="0OHCUWeCPXiJQQ2fVS1a-8" vertex="1">
          <mxGeometry width="420" height="50" as="geometry" />
        </mxCell>
        <mxCell id="0OHCUWeCPXiJQQ2fVS1a-1" value="JDBC" style="text;html=1;strokeColor=default;fillColor=none;align=center;verticalAlign=middle;whiteSpace=wrap;rounded=0;strokeWidth=1;fontColor=#081856;" parent="0OHCUWeCPXiJQQ2fVS1a-8" vertex="1">
          <mxGeometry x="100" y="10" width="60" height="30" as="geometry" />
        </mxCell>
        <mxCell id="0OHCUWeCPXiJQQ2fVS1a-2" value="ODBC" style="text;html=1;strokeColor=default;fillColor=none;align=center;verticalAlign=middle;whiteSpace=wrap;rounded=0;strokeWidth=1;fontColor=#081856;" parent="0OHCUWeCPXiJQQ2fVS1a-8" vertex="1">
          <mxGeometry x="20" y="10" width="60" height="30" as="geometry" />
        </mxCell>
        <mxCell id="0OHCUWeCPXiJQQ2fVS1a-3" value="PL/SQL" style="text;html=1;strokeColor=default;fillColor=none;align=center;verticalAlign=middle;whiteSpace=wrap;rounded=0;strokeWidth=1;fontColor=#081856;" parent="0OHCUWeCPXiJQQ2fVS1a-8" vertex="1">
          <mxGeometry x="180" y="10" width="60" height="30" as="geometry" />
        </mxCell>
        <mxCell id="0OHCUWeCPXiJQQ2fVS1a-4" value="JDBC" style="text;html=1;strokeColor=default;fillColor=none;align=center;verticalAlign=middle;whiteSpace=wrap;rounded=0;strokeWidth=1;fontColor=#081856;" parent="0OHCUWeCPXiJQQ2fVS1a-8" vertex="1">
          <mxGeometry x="260" y="10" width="60" height="30" as="geometry" />
        </mxCell>
        <mxCell id="0OHCUWeCPXiJQQ2fVS1a-5" value="JDBC" style="text;html=1;strokeColor=default;fillColor=none;align=center;verticalAlign=middle;whiteSpace=wrap;rounded=0;strokeWidth=1;fontColor=#081856;" parent="0OHCUWeCPXiJQQ2fVS1a-8" vertex="1">
          <mxGeometry x="340" y="10" width="60" height="30" as="geometry" />
        </mxCell>
        <mxCell id="0OHCUWeCPXiJQQ2fVS1a-12" value="" style="group" parent="1" vertex="1" connectable="0">
          <mxGeometry x="2030" y="2100" width="120" height="160" as="geometry" />
        </mxCell>
        <mxCell id="-2GKZBbyBp1yMccN1F-R-113" value="BDD Package" style="text;html=1;strokeColor=none;fillColor=none;align=center;verticalAlign=middle;whiteSpace=wrap;rounded=0;strokeWidth=2;fontColor=#081856;" parent="0OHCUWeCPXiJQQ2fVS1a-12" vertex="1">
          <mxGeometry x="29" y="130" width="60" height="30" as="geometry" />
        </mxCell>
        <mxCell id="-2GKZBbyBp1yMccN1F-R-114" value="" style="verticalLabelPosition=bottom;verticalAlign=top;html=1;shape=mxgraph.basic.polygon;polyCoords=[[0.25,0],[0.75,0],[1,0.25],[1,0.75],[0.75,1],[0.25,1],[0,0.75],[0,0.25]];polyline=0;strokeColor=#081856;strokeWidth=2;fontColor=#081856;fillColor=default;gradientColor=#FFFFFF;" parent="0OHCUWeCPXiJQQ2fVS1a-12" vertex="1">
          <mxGeometry width="120" height="120" as="geometry" />
        </mxCell>
        <mxCell id="-2GKZBbyBp1yMccN1F-R-115" value="" style="verticalLabelPosition=bottom;html=1;verticalAlign=top;align=center;strokeColor=none;fillColor=#081856;shape=mxgraph.azure.cloud_service_package_file;strokeWidth=2;fontColor=#081856;" parent="0OHCUWeCPXiJQQ2fVS1a-12" vertex="1">
          <mxGeometry x="29.256000000000085" y="24" width="61.5" height="72" as="geometry" />
        </mxCell>
        <mxCell id="0OHCUWeCPXiJQQ2fVS1a-18" value="" style="edgeStyle=orthogonalEdgeStyle;rounded=0;orthogonalLoop=1;jettySize=auto;html=1;fontSize=31;startArrow=classic;startFill=1;" parent="1" source="0OHCUWeCPXiJQQ2fVS1a-13" target="0OHCUWeCPXiJQQ2fVS1a-17" edge="1">
          <mxGeometry relative="1" as="geometry" />
        </mxCell>
        <mxCell id="0OHCUWeCPXiJQQ2fVS1a-13" value="&lt;font style=&quot;font-size: 31px;&quot;&gt;1&lt;/font&gt;" style="ellipse;whiteSpace=wrap;html=1;aspect=fixed;rounded=0;strokeColor=#A50040;strokeWidth=1;fillColor=#d80073;fontColor=#ffffff;" parent="1" vertex="1">
          <mxGeometry x="1480" y="1921" width="80" height="80" as="geometry" />
        </mxCell>
        <mxCell id="0OHCUWeCPXiJQQ2fVS1a-16" style="edgeStyle=orthogonalEdgeStyle;rounded=0;orthogonalLoop=1;jettySize=auto;html=1;entryX=0.5;entryY=0;entryDx=0;entryDy=0;fontSize=31;startArrow=classic;startFill=1;" parent="1" source="0OHCUWeCPXiJQQ2fVS1a-14" target="0OHCUWeCPXiJQQ2fVS1a-15" edge="1">
          <mxGeometry relative="1" as="geometry" />
        </mxCell>
        <mxCell id="0OHCUWeCPXiJQQ2fVS1a-14" value="" style="ellipse;whiteSpace=wrap;html=1;aspect=fixed;rounded=0;strokeColor=none;strokeWidth=1;fontSize=31;fillColor=none;" parent="1" vertex="1">
          <mxGeometry x="3140" y="1704.7" width="30" height="30" as="geometry" />
        </mxCell>
        <mxCell id="0OHCUWeCPXiJQQ2fVS1a-17" value="-monitoreo&lt;br&gt;información&lt;br&gt;-servicios&lt;br&gt;&lt;br&gt;-registro de servicios y aplicaciones&lt;br&gt;&lt;br&gt;-componente modular&lt;br&gt;&lt;br&gt;-Minimiza riesgo de obsolescencia" style="whiteSpace=wrap;html=1;fillColor=#d80073;strokeColor=#A50040;fontColor=#ffffff;rounded=0;strokeWidth=1;" parent="1" vertex="1">
          <mxGeometry x="1280" y="1881.5" width="120" height="159" as="geometry" />
        </mxCell>
        <mxCell id="0OHCUWeCPXiJQQ2fVS1a-19" value="un solo componente modular" style="whiteSpace=wrap;html=1;fillColor=#d80073;strokeColor=#A50040;fontColor=#ffffff;rounded=0;strokeWidth=1;" parent="1" vertex="1">
          <mxGeometry x="1280" y="2056" width="120" height="49" as="geometry" />
        </mxCell>
        <mxCell id="0OHCUWeCPXiJQQ2fVS1a-20" value="aumentar la cohesion desde la consulta&amp;nbsp;" style="whiteSpace=wrap;html=1;fillColor=#d80073;strokeColor=#A50040;fontColor=#ffffff;rounded=0;strokeWidth=1;" parent="1" vertex="1">
          <mxGeometry x="1280" y="2120" width="120" height="49" as="geometry" />
        </mxCell>
        <mxCell id="JTdgcMHgrWfb0Qp9r0Pv-1" value="Patron de diseño gateway - facade" style="whiteSpace=wrap;html=1;fillColor=#d80073;strokeColor=#A50040;fontColor=#ffffff;rounded=0;strokeWidth=1;" parent="1" vertex="1">
          <mxGeometry x="1280" y="2180" width="120" height="49" as="geometry" />
        </mxCell>
        <mxCell id="d1zOp5WOyfaCxIi-WCaX-1" value="INTRANET" style="rounded=1;whiteSpace=wrap;html=1;strokeWidth=0;gradientDirection=south;verticalAlign=top;strokeColor=default;fontStyle=1" vertex="1" parent="1">
          <mxGeometry x="4140" y="1284" width="1860" height="1066" as="geometry" />
        </mxCell>
        <mxCell id="d1zOp5WOyfaCxIi-WCaX-2" value="" style="group;fillColor=none;" vertex="1" connectable="0" parent="1">
          <mxGeometry x="4236" y="2060.7" width="1175" height="269.3000000000002" as="geometry" />
        </mxCell>
        <mxCell id="d1zOp5WOyfaCxIi-WCaX-3" value="" style="rounded=1;whiteSpace=wrap;html=1;strokeColor=default;strokeWidth=1;fontColor=#081856;fillColor=#FFFFFF;gradientColor=none;gradientDirection=south;" vertex="1" parent="d1zOp5WOyfaCxIi-WCaX-2">
          <mxGeometry width="1175" height="224.3" as="geometry" />
        </mxCell>
        <mxCell id="d1zOp5WOyfaCxIi-WCaX-4" value="BANCS BDD" style="text;html=1;strokeColor=none;fillColor=none;align=center;verticalAlign=middle;whiteSpace=wrap;rounded=0;strokeWidth=1;fontColor=#081856;fontStyle=1" vertex="1" parent="d1zOp5WOyfaCxIi-WCaX-2">
          <mxGeometry x="526.5" y="239.30000000000018" width="122" height="30" as="geometry" />
        </mxCell>
        <mxCell id="d1zOp5WOyfaCxIi-WCaX-124" value="" style="group;fillColor=default;dashed=1;" vertex="1" connectable="0" parent="d1zOp5WOyfaCxIi-WCaX-2">
          <mxGeometry x="732" y="39.30000000000018" width="94.8599999999999" height="170" as="geometry" />
        </mxCell>
        <mxCell id="d1zOp5WOyfaCxIi-WCaX-125" value="" style="strokeWidth=2;html=1;shape=mxgraph.flowchart.database;whiteSpace=wrap;strokeColor=#081856;fontColor=#081856;fillColor=#FFFFFF;gradientColor=none;dashed=1;" vertex="1" parent="d1zOp5WOyfaCxIi-WCaX-124">
          <mxGeometry width="94.86" height="130" as="geometry" />
        </mxCell>
        <mxCell id="d1zOp5WOyfaCxIi-WCaX-126" value="Rep" style="text;html=1;strokeColor=none;fillColor=none;align=center;verticalAlign=middle;whiteSpace=wrap;rounded=0;strokeWidth=2;fontColor=#081856;" vertex="1" parent="d1zOp5WOyfaCxIi-WCaX-124">
          <mxGeometry x="17.430000000000064" y="140" width="60" height="30" as="geometry" />
        </mxCell>
        <mxCell id="d1zOp5WOyfaCxIi-WCaX-133" value="" style="group;fillColor=default;dashed=1;" vertex="1" connectable="0" parent="d1zOp5WOyfaCxIi-WCaX-2">
          <mxGeometry x="854" y="39.30000000000018" width="94.8599999999999" height="170" as="geometry" />
        </mxCell>
        <mxCell id="d1zOp5WOyfaCxIi-WCaX-134" value="" style="strokeWidth=2;html=1;shape=mxgraph.flowchart.database;whiteSpace=wrap;strokeColor=#081856;fontColor=#081856;fillColor=#FFFFFF;gradientColor=none;dashed=1;" vertex="1" parent="d1zOp5WOyfaCxIi-WCaX-133">
          <mxGeometry width="94.86" height="130" as="geometry" />
        </mxCell>
        <mxCell id="d1zOp5WOyfaCxIi-WCaX-135" value="Rep" style="text;html=1;strokeColor=none;fillColor=none;align=center;verticalAlign=middle;whiteSpace=wrap;rounded=0;strokeWidth=2;fontColor=#081856;" vertex="1" parent="d1zOp5WOyfaCxIi-WCaX-133">
          <mxGeometry x="17.430000000000064" y="140" width="60" height="30" as="geometry" />
        </mxCell>
        <mxCell id="d1zOp5WOyfaCxIi-WCaX-136" value="" style="group;fillColor=default;dashed=1;" vertex="1" connectable="0" parent="d1zOp5WOyfaCxIi-WCaX-2">
          <mxGeometry x="974" y="39.30000000000018" width="94.8599999999999" height="170" as="geometry" />
        </mxCell>
        <mxCell id="d1zOp5WOyfaCxIi-WCaX-137" value="" style="strokeWidth=2;html=1;shape=mxgraph.flowchart.database;whiteSpace=wrap;strokeColor=#081856;fontColor=#081856;fillColor=#FFFFFF;gradientColor=none;dashed=1;" vertex="1" parent="d1zOp5WOyfaCxIi-WCaX-136">
          <mxGeometry width="94.86" height="130" as="geometry" />
        </mxCell>
        <mxCell id="d1zOp5WOyfaCxIi-WCaX-138" value="Otro" style="text;html=1;strokeColor=none;fillColor=none;align=center;verticalAlign=middle;whiteSpace=wrap;rounded=0;strokeWidth=2;fontColor=#081856;" vertex="1" parent="d1zOp5WOyfaCxIi-WCaX-136">
          <mxGeometry x="17.430000000000064" y="140" width="60" height="30" as="geometry" />
        </mxCell>
        <mxCell id="d1zOp5WOyfaCxIi-WCaX-5" style="edgeStyle=orthogonalEdgeStyle;rounded=0;orthogonalLoop=1;jettySize=auto;html=1;startArrow=classic;startFill=1;" edge="1" parent="1" source="d1zOp5WOyfaCxIi-WCaX-6" target="d1zOp5WOyfaCxIi-WCaX-99">
          <mxGeometry relative="1" as="geometry" />
        </mxCell>
        <mxCell id="d1zOp5WOyfaCxIi-WCaX-6" value="" style="rounded=1;whiteSpace=wrap;html=1;strokeColor=default;strokeWidth=1;fontColor=#081856;fillColor=#FFFFFF;gradientColor=none;gradientDirection=south;" vertex="1" parent="1">
          <mxGeometry x="4200" y="1480" width="1245" height="320" as="geometry" />
        </mxCell>
        <mxCell id="d1zOp5WOyfaCxIi-WCaX-7" value="" style="rounded=0;whiteSpace=wrap;html=1;strokeColor=#FFD966;strokeWidth=3;fontColor=#081856;fillColor=none;gradientColor=none;gradientDirection=south;" vertex="1" parent="1">
          <mxGeometry x="4120" y="1330" width="1930" height="500" as="geometry" />
        </mxCell>
        <mxCell id="d1zOp5WOyfaCxIi-WCaX-8" value="" style="rounded=1;whiteSpace=wrap;html=1;strokeColor=#081856;strokeWidth=1;fontColor=#081856;fillColor=none;gradientColor=none;gradientDirection=south;" vertex="1" parent="1">
          <mxGeometry x="4880" y="1520" width="1000" height="230" as="geometry" />
        </mxCell>
        <mxCell id="d1zOp5WOyfaCxIi-WCaX-9" value="Microbat operaciones" style="sketch=0;aspect=fixed;html=1;points=[];align=center;image;fontSize=12;image=img/lib/mscae/VirtualMachineWindows.svg;strokeColor=#081856;strokeWidth=2;fillColor=#081856;gradientColor=#081856;" vertex="1" parent="1">
          <mxGeometry x="4580" y="1596.76" width="82.61" height="76" as="geometry" />
        </mxCell>
        <mxCell id="d1zOp5WOyfaCxIi-WCaX-10" value="DMZ" style="rounded=1;whiteSpace=wrap;html=1;strokeColor=#36393d;strokeWidth=1;fillColor=#cce5ff;gradientDirection=south;verticalAlign=top;fontStyle=1" vertex="1" parent="1">
          <mxGeometry x="4140" y="1055" width="1860" height="225" as="geometry" />
        </mxCell>
        <mxCell id="d1zOp5WOyfaCxIi-WCaX-11" value="" style="rounded=1;whiteSpace=wrap;html=1;strokeColor=#FFD966;strokeWidth=3;fontColor=#081856;fillColor=#FFFFFF;gradientColor=none;gradientDirection=south;" vertex="1" parent="1">
          <mxGeometry x="4159" y="1089" width="1780" height="125" as="geometry" />
        </mxCell>
        <mxCell id="d1zOp5WOyfaCxIi-WCaX-12" value="&lt;b&gt;INTERNET&lt;/b&gt;" style="rounded=1;whiteSpace=wrap;html=1;strokeColor=#36393d;strokeWidth=1;fillColor=#cce5ff;gradientDirection=south;verticalAlign=top;" vertex="1" parent="1">
          <mxGeometry x="4140" y="710" width="1860" height="320" as="geometry" />
        </mxCell>
        <mxCell id="d1zOp5WOyfaCxIi-WCaX-13" value="" style="rounded=1;whiteSpace=wrap;html=1;strokeColor=#36393d;strokeWidth=1;fillColor=#cce5ff;gradientDirection=south;" vertex="1" parent="1">
          <mxGeometry x="4915" y="1574.7" width="501" height="160" as="geometry" />
        </mxCell>
        <mxCell id="d1zOp5WOyfaCxIi-WCaX-14" value="" style="rounded=1;whiteSpace=wrap;html=1;strokeColor=#36393d;strokeWidth=1;fillColor=#cce5ff;gradientDirection=south;" vertex="1" parent="1">
          <mxGeometry x="5470" y="1574.7" width="400" height="160" as="geometry" />
        </mxCell>
        <mxCell id="d1zOp5WOyfaCxIi-WCaX-15" value="" style="rounded=1;whiteSpace=wrap;html=1;strokeColor=#FFD966;strokeWidth=3;fontColor=#081856;fillColor=#FFFFFF;gradientColor=none;gradientDirection=south;" vertex="1" parent="1">
          <mxGeometry x="4160" y="749" width="1779" height="130" as="geometry" />
        </mxCell>
        <mxCell id="d1zOp5WOyfaCxIi-WCaX-16" value="" style="rounded=1;whiteSpace=wrap;html=1;strokeColor=#FFD966;strokeWidth=3;fontColor=#081856;fillColor=#FFFFFF;gradientColor=none;gradientDirection=south;" vertex="1" parent="1">
          <mxGeometry x="4160" y="889" width="1780" height="130" as="geometry" />
        </mxCell>
        <mxCell id="d1zOp5WOyfaCxIi-WCaX-17" value="deUna!" style="shape=image;verticalLabelPosition=bottom;labelBackgroundColor=default;verticalAlign=top;aspect=fixed;imageAspect=0;image=https://play-lh.googleusercontent.com/kbyMfEeE5B6l1ZA0WFrPxrhWWjpSeoI-BFYsonXoXiZVYmYu1xVjGyRGfQJRVQGK8Ik=w600-h300-pc0xffffff-pd;" vertex="1" parent="1">
          <mxGeometry x="5701" y="771" width="152" height="76" as="geometry" />
        </mxCell>
        <mxCell id="d1zOp5WOyfaCxIi-WCaX-18" value="Cliente movil" style="sketch=0;outlineConnect=0;fontColor=#232F3E;gradientColor=none;fillColor=#232F3D;strokeColor=none;dashed=0;verticalLabelPosition=bottom;verticalAlign=top;align=center;html=1;fontSize=12;fontStyle=0;aspect=fixed;pointerEvents=1;shape=mxgraph.aws4.mobile_client;strokeWidth=2;" vertex="1" parent="1">
          <mxGeometry x="5659" y="769" width="39.94" height="76" as="geometry" />
        </mxCell>
        <mxCell id="d1zOp5WOyfaCxIi-WCaX-19" value="Aplicaciones&lt;br&gt;&amp;nbsp;de terceros" style="sketch=0;aspect=fixed;pointerEvents=1;shadow=0;dashed=0;html=1;strokeColor=#081856;labelPosition=center;verticalLabelPosition=bottom;verticalAlign=top;align=center;fillColor=#081856;shape=mxgraph.azure.cloud;strokeWidth=2;" vertex="1" parent="1">
          <mxGeometry x="5595.2" y="900" width="118.7" height="76" as="geometry" />
        </mxCell>
        <mxCell id="d1zOp5WOyfaCxIi-WCaX-20" value="" style="group" vertex="1" connectable="0" parent="1">
          <mxGeometry x="5859" y="771" width="70" height="76" as="geometry" />
        </mxCell>
        <mxCell id="d1zOp5WOyfaCxIi-WCaX-21" value="" style="group;strokeColor=none;container=0;" vertex="1" connectable="0" parent="d1zOp5WOyfaCxIi-WCaX-20">
          <mxGeometry width="67.74193548387098" height="71.52941176470588" as="geometry" />
        </mxCell>
        <mxCell id="d1zOp5WOyfaCxIi-WCaX-22" value="CNB juridico" style="verticalLabelPosition=bottom;verticalAlign=top;html=1;shape=mxgraph.basic.polygon;polyCoords=[[0.25,0],[0.75,0],[1,0.25],[1,0.75],[0.75,1],[0.25,1],[0,0.75],[0,0.25]];polyline=0;strokeColor=#081856;strokeWidth=2;fillColor=#FFFFFF;" vertex="1" parent="d1zOp5WOyfaCxIi-WCaX-20">
          <mxGeometry x="2.2580645161290325" y="4.470588235294118" width="67.74193548387098" height="71.52941176470588" as="geometry" />
        </mxCell>
        <mxCell id="d1zOp5WOyfaCxIi-WCaX-23" value="" style="rounded=0;whiteSpace=wrap;html=1;strokeColor=#081856;strokeWidth=2;fillColor=#081856;" vertex="1" parent="d1zOp5WOyfaCxIi-WCaX-20">
          <mxGeometry x="45.16129032258065" y="11.92156862745098" width="11.290322580645162" height="11.92156862745098" as="geometry" />
        </mxCell>
        <mxCell id="d1zOp5WOyfaCxIi-WCaX-24" value="" style="rounded=0;whiteSpace=wrap;html=1;strokeColor=#081856;strokeWidth=2;fillColor=#081856;" vertex="1" parent="d1zOp5WOyfaCxIi-WCaX-20">
          <mxGeometry x="45.16129032258065" y="29.80392156862745" width="11.290322580645162" height="11.92156862745098" as="geometry" />
        </mxCell>
        <mxCell id="d1zOp5WOyfaCxIi-WCaX-25" value="" style="rounded=0;whiteSpace=wrap;html=1;strokeColor=#081856;strokeWidth=2;fillColor=#081856;" vertex="1" parent="d1zOp5WOyfaCxIi-WCaX-20">
          <mxGeometry x="28.225806451612907" y="29.80392156862745" width="11.290322580645162" height="11.92156862745098" as="geometry" />
        </mxCell>
        <mxCell id="d1zOp5WOyfaCxIi-WCaX-26" value="" style="rounded=0;whiteSpace=wrap;html=1;strokeColor=#081856;strokeWidth=2;fillColor=#081856;" vertex="1" parent="d1zOp5WOyfaCxIi-WCaX-20">
          <mxGeometry x="11.290322580645162" y="29.80392156862745" width="11.290322580645162" height="11.92156862745098" as="geometry" />
        </mxCell>
        <mxCell id="d1zOp5WOyfaCxIi-WCaX-27" value="" style="rounded=0;whiteSpace=wrap;html=1;strokeColor=#081856;strokeWidth=2;fillColor=#081856;" vertex="1" parent="d1zOp5WOyfaCxIi-WCaX-20">
          <mxGeometry x="45.16129032258065" y="47.68627450980392" width="11.290322580645162" height="11.92156862745098" as="geometry" />
        </mxCell>
        <mxCell id="d1zOp5WOyfaCxIi-WCaX-28" value="" style="rounded=0;whiteSpace=wrap;html=1;strokeColor=#081856;strokeWidth=2;fillColor=#081856;" vertex="1" parent="d1zOp5WOyfaCxIi-WCaX-20">
          <mxGeometry x="28.225806451612907" y="47.68627450980392" width="11.290322580645162" height="11.92156862745098" as="geometry" />
        </mxCell>
        <mxCell id="d1zOp5WOyfaCxIi-WCaX-29" value="" style="rounded=0;whiteSpace=wrap;html=1;strokeColor=#081856;strokeWidth=2;fillColor=#081856;" vertex="1" parent="d1zOp5WOyfaCxIi-WCaX-20">
          <mxGeometry x="11.290322580645162" y="47.68627450980392" width="11.290322580645162" height="11.92156862745098" as="geometry" />
        </mxCell>
        <mxCell id="d1zOp5WOyfaCxIi-WCaX-30" style="edgeStyle=orthogonalEdgeStyle;rounded=0;orthogonalLoop=1;jettySize=auto;html=1;entryX=0.5;entryY=0;entryDx=0;entryDy=0;entryPerimeter=0;strokeWidth=2;fontColor=#081856;startArrow=classic;startFill=1;" edge="1" parent="1" source="d1zOp5WOyfaCxIi-WCaX-31" target="d1zOp5WOyfaCxIi-WCaX-33">
          <mxGeometry relative="1" as="geometry" />
        </mxCell>
        <mxCell id="d1zOp5WOyfaCxIi-WCaX-31" value="&lt;span style=&quot;font-weight: normal;&quot;&gt;Apigee API&lt;br&gt;Platform&lt;/span&gt;" style="sketch=0;html=1;verticalAlign=top;labelPosition=center;verticalLabelPosition=bottom;align=center;spacingTop=-6;fontSize=11;fontStyle=1;fontColor=#081856;shape=image;aspect=fixed;imageAspect=0;image=data:image/svg+xml,PHN2ZyB4bWxucz0iaHR0cDovL3d3dy53My5vcmcvMjAwMC9zdmciIHhtbG5zOnY9Imh0dHBzOi8vdmVjdGEuaW8vbmFubyIgd2lkdGg9IjIwLjE4MDIzMTA5NDM2MDM1IiBoZWlnaHQ9IjIwLjE4MDIwODIwNjE3Njc1OCIgdmlld0JveD0iLTAuMDAwMTE1MTY1MTIzMTMzOTIwMTMgLTAuMDAwMTAzMzQ0NDkzMjU0NTUzNTMgMjAuMTgwMjMxMDk0MzYwMzUgMjAuMTgwMjA4MjA2MTc2NzU4Ij4mI3hhOwk8c3R5bGUgdHlwZT0idGV4dC9jc3MiPiYjeGE7CS5zdDB7ZmlsbDojNjY5ZGY2O2ZpbGwtcnVsZTpldmVub2RkfSYjeGE7CS5zdDF7ZmlsbC1ydWxlOmV2ZW5vZGQ7ZmlsbDojNDI4NWY0fSYjeGE7CTwvc3R5bGU+JiN4YTsJPHBhdGggY2xhc3M9InN0MCIgZD0iTTMuMjkgMTAuMDlsMS4zMi0xLjMyLTEuNzktMS43OWEyLjk0IDIuOTQgMCAwIDEgMi4wOC01IDIuOTIgMi45MiAwIDAgMSAyLjA3Ljg2bDEuOCAxLjc5IDEuMzItMS4zNEw4LjMgMS41YTQuODEgNC44MSAwIDEgMC02LjggNi44em0xMy42IDBsLTEuMzIgMS4zMiAxLjc5IDEuOGEyLjk0IDIuOTQgMCAwIDEtNC4xNiA0LjE1bC0xLjc5LTEuNzktMS4zMiAxLjMyIDEuNzkgMS43OWE0LjgxIDQuODEgMCAxIDAgNi44LTYuOHoiLz4mI3hhOwk8cGF0aCBjbGFzcz0ic3QxIiBkPSJNNi45OCAxNy4zNmEyLjk0IDIuOTQgMCAxIDEtNC4xNi00LjE2bDEuNzktMS43OSA0LjE2IDQuMTZ6bTYuMjMtMTQuNTRhMi45MyAyLjkzIDAgMCAxIDUgMi4wOCAzIDMgMCAwIDEtLjg2IDIuMDhsLTEuNzkgMS43OS00LjE1LTQuMTZ6bS0zLjEyIDEwLjQ2YTMuMiAzLjIgMCAwIDEtMy4xOS0zLjE5aDBhMy4yMSAzLjIxIDAgMCAxIDMuMTktMy4xOWgwYTMuMjEgMy4yMSAwIDAgMSAzLjE5IDMuMTloMGEzLjIgMy4yIDAgMCAxLTMuMTkgMy4xOXptNi44LTMuMTlsMS43OS0xLjc5QTQuODEgNC44MSAwIDAgMCAxNi41NzQuMTUzIDQuODEgNC44MSAwIDAgMCAxMS44OCAxLjVsLTEuNzkgMS43OS02LjggNi44LTEuNzkgMS43OWE0LjgxIDQuODEgMCAwIDAgMi4xMDYgOC4xNDdBNC44MSA0LjgxIDAgMCAwIDguMyAxOC42OGwxLjc5LTEuNzl6Ii8+JiN4YTs8L3N2Zz4=;strokeColor=default;strokeWidth=2;fillColor=#FFFFFF;" vertex="1" parent="1">
          <mxGeometry x="5841" y="901.8" width="76" height="76" as="geometry" />
        </mxCell>
        <mxCell id="d1zOp5WOyfaCxIi-WCaX-32" style="edgeStyle=orthogonalEdgeStyle;rounded=0;orthogonalLoop=1;jettySize=auto;html=1;entryX=0.5;entryY=0;entryDx=0;entryDy=0;entryPerimeter=0;strokeWidth=2;fontColor=#081856;startArrow=classic;startFill=1;" edge="1" parent="1" source="d1zOp5WOyfaCxIi-WCaX-33" target="d1zOp5WOyfaCxIi-WCaX-35">
          <mxGeometry relative="1" as="geometry" />
        </mxCell>
        <mxCell id="d1zOp5WOyfaCxIi-WCaX-33" value="Data power externo" style="sketch=0;points=[[0,0,0],[0.25,0,0],[0.5,0,0],[0.75,0,0],[1,0,0],[0,1,0],[0.25,1,0],[0.5,1,0],[0.75,1,0],[1,1,0],[0,0.25,0],[0,0.5,0],[0,0.75,0],[1,0.25,0],[1,0.5,0],[1,0.75,0]];outlineConnect=0;fontColor=#232F3E;gradientColor=#081856;gradientDirection=north;fillColor=#081856;strokeColor=#ffffff;dashed=0;verticalLabelPosition=bottom;verticalAlign=top;align=center;html=1;fontSize=12;fontStyle=0;aspect=fixed;shape=mxgraph.aws4.resourceIcon;resIcon=mxgraph.aws4.api_gateway;strokeWidth=2;" vertex="1" parent="1">
          <mxGeometry x="5841" y="1112.17" width="76" height="76" as="geometry" />
        </mxCell>
        <mxCell id="d1zOp5WOyfaCxIi-WCaX-34" style="edgeStyle=orthogonalEdgeStyle;rounded=0;orthogonalLoop=1;jettySize=auto;html=1;entryX=0.5;entryY=0;entryDx=0;entryDy=0;strokeWidth=2;fontColor=#0050A1;startArrow=classic;startFill=1;" edge="1" parent="1" source="d1zOp5WOyfaCxIi-WCaX-35" target="d1zOp5WOyfaCxIi-WCaX-64">
          <mxGeometry relative="1" as="geometry" />
        </mxCell>
        <mxCell id="d1zOp5WOyfaCxIi-WCaX-35" value="Data power interno" style="sketch=0;points=[[0,0,0],[0.25,0,0],[0.5,0,0],[0.75,0,0],[1,0,0],[0,1,0],[0.25,1,0],[0.5,1,0],[0.75,1,0],[1,1,0],[0,0.25,0],[0,0.5,0],[0,0.75,0],[1,0.25,0],[1,0.5,0],[1,0.75,0]];outlineConnect=0;fontColor=#232F3E;gradientColor=#081856;gradientDirection=north;fillColor=#081856;strokeColor=#ffffff;dashed=0;verticalLabelPosition=bottom;verticalAlign=top;align=center;html=1;fontSize=12;fontStyle=0;aspect=fixed;shape=mxgraph.aws4.resourceIcon;resIcon=mxgraph.aws4.api_gateway;strokeWidth=2;" vertex="1" parent="1">
          <mxGeometry x="5840" y="1295.2" width="76" height="76" as="geometry" />
        </mxCell>
        <mxCell id="d1zOp5WOyfaCxIi-WCaX-36" value="Legacies" style="sketch=0;aspect=fixed;pointerEvents=1;shadow=0;dashed=0;html=1;strokeColor=none;labelPosition=center;verticalLabelPosition=bottom;verticalAlign=top;align=center;fillColor=#081856;shape=mxgraph.mscae.enterprise.windows_server;strokeWidth=2;" vertex="1" parent="1">
          <mxGeometry x="4270" y="1596.76" width="59.28" height="76" as="geometry" />
        </mxCell>
        <mxCell id="d1zOp5WOyfaCxIi-WCaX-37" value="" style="shape=image;verticalLabelPosition=bottom;labelBackgroundColor=default;verticalAlign=top;aspect=fixed;imageAspect=0;image=https://upload.wikimedia.org/wikipedia/en/5/56/WSO2_Software_Logo.png;" vertex="1" parent="1">
          <mxGeometry x="4370" y="1589.76" width="168.89" height="76" as="geometry" />
        </mxCell>
        <mxCell id="d1zOp5WOyfaCxIi-WCaX-38" value="" style="shape=image;verticalLabelPosition=bottom;labelBackgroundColor=default;verticalAlign=top;aspect=fixed;imageAspect=0;image=https://www.angioni.nl/wp-content/uploads/2019/01/IBM-WAS-Portal.png;" vertex="1" parent="1">
          <mxGeometry x="4710" y="1598.7" width="76" height="76" as="geometry" />
        </mxCell>
        <mxCell id="d1zOp5WOyfaCxIi-WCaX-39" style="edgeStyle=orthogonalEdgeStyle;rounded=0;orthogonalLoop=1;jettySize=auto;html=1;strokeWidth=2;fontColor=#081856;startArrow=classic;startFill=1;" edge="1" parent="1" source="d1zOp5WOyfaCxIi-WCaX-40">
          <mxGeometry relative="1" as="geometry">
            <mxPoint x="5281" y="1480" as="targetPoint" />
          </mxGeometry>
        </mxCell>
        <mxCell id="d1zOp5WOyfaCxIi-WCaX-40" value="Legacies" style="sketch=0;aspect=fixed;pointerEvents=1;shadow=0;dashed=0;html=1;strokeColor=none;labelPosition=center;verticalLabelPosition=bottom;verticalAlign=top;align=center;fillColor=#081856;shape=mxgraph.mscae.enterprise.windows_server;strokeWidth=2;" vertex="1" parent="1">
          <mxGeometry x="5251" y="1341.2" width="59.28" height="76" as="geometry" />
        </mxCell>
        <mxCell id="d1zOp5WOyfaCxIi-WCaX-41" value="Notificador" style="shape=image;verticalLabelPosition=bottom;labelBackgroundColor=none;verticalAlign=top;aspect=fixed;imageAspect=0;image=https://www.midvision.com/crane/wp-content/uploads/2017/11/WAS-AS.png;" vertex="1" parent="1">
          <mxGeometry x="4986.08" y="1604.7" width="76" height="76" as="geometry" />
        </mxCell>
        <mxCell id="d1zOp5WOyfaCxIi-WCaX-42" value="Omnicanal" style="shape=image;verticalLabelPosition=bottom;labelBackgroundColor=none;verticalAlign=top;aspect=fixed;imageAspect=0;image=https://www.midvision.com/crane/wp-content/uploads/2017/11/WAS-AS.png;" vertex="1" parent="1">
          <mxGeometry x="5110" y="1604.7" width="76" height="76" as="geometry" />
        </mxCell>
        <mxCell id="d1zOp5WOyfaCxIi-WCaX-43" value="" style="shape=image;verticalLabelPosition=bottom;labelBackgroundColor=default;verticalAlign=top;aspect=fixed;imageAspect=0;image=https://cdn.mindmajix.com/courses/websphere-process-server-training.png;" vertex="1" parent="1">
          <mxGeometry x="5233" y="1604.78" width="126.67" height="76" as="geometry" />
        </mxCell>
        <mxCell id="d1zOp5WOyfaCxIi-WCaX-44" value="IBM BUS&lt;br&gt;Soporte" style="aspect=fixed;perimeter=ellipsePerimeter;html=1;align=center;shadow=0;dashed=0;fontColor=#081856;labelBackgroundColor=#ffffff;fontSize=12;spacingTop=3;image;image=img/lib/ibm/blockchain/message_bus.svg;strokeColor=#081856;strokeWidth=2;fillColor=none;gradientColor=#081856;" vertex="1" parent="1">
          <mxGeometry x="5405" y="1603.78" width="76" height="76" as="geometry" />
        </mxCell>
        <mxCell id="d1zOp5WOyfaCxIi-WCaX-45" value="Message&lt;br&gt;&amp;nbsp;processor" style="sketch=0;aspect=fixed;pointerEvents=1;shadow=0;dashed=0;html=1;strokeColor=none;labelPosition=center;verticalLabelPosition=bottom;verticalAlign=top;align=center;fillColor=#081856;shape=mxgraph.mscae.enterprise.windows_server;strokeWidth=2;" vertex="1" parent="1">
          <mxGeometry x="5537" y="1604.29" width="59.28" height="76" as="geometry" />
        </mxCell>
        <mxCell id="d1zOp5WOyfaCxIi-WCaX-46" value="Openshift" style="sketch=0;aspect=fixed;html=1;points=[];align=center;image;fontSize=12;image=img/lib/mscae/OpenShift.svg;strokeColor=default;strokeWidth=2;fillColor=default;gradientColor=#081856;labelBackgroundColor=none;shadow=0;dashed=0;spacingTop=3;" vertex="1" parent="1">
          <mxGeometry x="5771.02" y="1604.3999999999999" width="82.6" height="76" as="geometry" />
        </mxCell>
        <mxCell id="d1zOp5WOyfaCxIi-WCaX-47" value="" style="group" vertex="1" connectable="0" parent="1">
          <mxGeometry x="4850" y="2100" width="94.8599999999999" height="170" as="geometry" />
        </mxCell>
        <mxCell id="d1zOp5WOyfaCxIi-WCaX-48" value="" style="strokeWidth=2;html=1;shape=mxgraph.flowchart.database;whiteSpace=wrap;strokeColor=#FFFFFF;fontColor=#081856;fillColor=#081856;gradientColor=none;" vertex="1" parent="d1zOp5WOyfaCxIi-WCaX-47">
          <mxGeometry width="94.86" height="130" as="geometry" />
        </mxCell>
        <mxCell id="d1zOp5WOyfaCxIi-WCaX-49" value="BDD Bancs" style="text;html=1;strokeColor=none;fillColor=none;align=center;verticalAlign=middle;whiteSpace=wrap;rounded=0;strokeWidth=2;fontColor=#081856;" vertex="1" parent="d1zOp5WOyfaCxIi-WCaX-47">
          <mxGeometry x="17.430000000000064" y="140" width="60" height="30" as="geometry" />
        </mxCell>
        <mxCell id="d1zOp5WOyfaCxIi-WCaX-50" value="Cliente Web" style="sketch=0;outlineConnect=0;gradientColor=none;fontColor=#545B64;strokeColor=none;fillColor=#879196;dashed=0;verticalLabelPosition=bottom;verticalAlign=top;align=center;html=1;fontSize=12;fontStyle=0;aspect=fixed;shape=mxgraph.aws4.illustration_devices;pointerEvents=1;strokeWidth=2;" vertex="1" parent="1">
          <mxGeometry x="5511.02" y="769" width="104.11" height="76" as="geometry" />
        </mxCell>
        <mxCell id="d1zOp5WOyfaCxIi-WCaX-51" value="" style="group" vertex="1" connectable="0" parent="1">
          <mxGeometry x="5740" y="901.8" width="80" height="98.20000000000005" as="geometry" />
        </mxCell>
        <mxCell id="d1zOp5WOyfaCxIi-WCaX-52" value="" style="group" vertex="1" connectable="0" parent="d1zOp5WOyfaCxIi-WCaX-51">
          <mxGeometry width="80" height="76" as="geometry" />
        </mxCell>
        <mxCell id="d1zOp5WOyfaCxIi-WCaX-53" value="" style="group" vertex="1" connectable="0" parent="d1zOp5WOyfaCxIi-WCaX-52">
          <mxGeometry x="-1.1428571428571428" width="80.00000000000006" height="76" as="geometry" />
        </mxCell>
        <mxCell id="d1zOp5WOyfaCxIi-WCaX-54" value="" style="verticalLabelPosition=bottom;verticalAlign=top;html=1;shape=mxgraph.basic.polygon;polyCoords=[[0.25,0],[0.75,0],[1,0.25],[1,0.75],[0.75,1],[0.25,1],[0,0.75],[0,0.25]];polyline=0;strokeColor=#081856;strokeWidth=1;fontColor=#081856;fillColor=#FFFFFF;gradientColor=none;" vertex="1" parent="d1zOp5WOyfaCxIi-WCaX-53">
          <mxGeometry width="80.00000000000006" height="76" as="geometry" />
        </mxCell>
        <mxCell id="d1zOp5WOyfaCxIi-WCaX-55" value="" style="shape=image;html=1;verticalAlign=top;verticalLabelPosition=bottom;labelBackgroundColor=#ffffff;imageAspect=0;aspect=fixed;image=https://cdn1.iconfinder.com/data/icons/ui-essential-17/32/UI_Essential_Outline_1_essential-app-ui-internet-word-128.png;strokeColor=#FFFFFF;strokeWidth=1;fontColor=#081856;fillColor=#081856;gradientColor=none;gradientDirection=south;" vertex="1" parent="d1zOp5WOyfaCxIi-WCaX-53">
          <mxGeometry x="15.32142857142857" y="13.316285714285716" width="49.36051948051948" height="49.36051948051948" as="geometry" />
        </mxCell>
        <mxCell id="d1zOp5WOyfaCxIi-WCaX-56" value="BancaWeb" style="text;html=1;strokeColor=none;fillColor=none;align=center;verticalAlign=middle;whiteSpace=wrap;rounded=0;strokeWidth=1;fontColor=#081856;" vertex="1" parent="d1zOp5WOyfaCxIi-WCaX-51">
          <mxGeometry x="10" y="68.20000000000005" width="60" height="30" as="geometry" />
        </mxCell>
        <mxCell id="d1zOp5WOyfaCxIi-WCaX-57" style="edgeStyle=orthogonalEdgeStyle;rounded=0;orthogonalLoop=1;jettySize=auto;html=1;exitX=0;exitY=0.5;exitDx=0;exitDy=0;strokeWidth=2;fontColor=#081856;startArrow=classic;startFill=1;entryX=1;entryY=0.5;entryDx=0;entryDy=0;" edge="1" parent="1" source="d1zOp5WOyfaCxIi-WCaX-101" target="d1zOp5WOyfaCxIi-WCaX-99">
          <mxGeometry relative="1" as="geometry">
            <mxPoint x="5079" y="2193.8500000000004" as="targetPoint" />
          </mxGeometry>
        </mxCell>
        <mxCell id="d1zOp5WOyfaCxIi-WCaX-58" value="Orquestadores BDD" style="text;html=1;strokeColor=none;fillColor=none;align=center;verticalAlign=middle;whiteSpace=wrap;rounded=0;strokeWidth=1;fontColor=#081856;fontStyle=1" vertex="1" parent="1">
          <mxGeometry x="5118" y="1540" width="122" height="30" as="geometry" />
        </mxCell>
        <mxCell id="d1zOp5WOyfaCxIi-WCaX-59" value="Orquestadores APP" style="text;html=1;strokeColor=none;fillColor=none;align=center;verticalAlign=middle;whiteSpace=wrap;rounded=0;strokeWidth=1;fontColor=#081856;fontStyle=1" vertex="1" parent="1">
          <mxGeometry x="5593.549999999999" y="1540" width="122" height="30" as="geometry" />
        </mxCell>
        <mxCell id="d1zOp5WOyfaCxIi-WCaX-60" value="Integración de servicios" style="text;html=1;strokeColor=none;fillColor=none;align=center;verticalAlign=middle;whiteSpace=wrap;rounded=0;strokeWidth=1;fontColor=#081856;fontStyle=1" vertex="1" parent="1">
          <mxGeometry x="5346.02" y="1490" width="165" height="30" as="geometry" />
        </mxCell>
        <mxCell id="d1zOp5WOyfaCxIi-WCaX-61" value="" style="group" vertex="1" connectable="0" parent="1">
          <mxGeometry x="5621" y="1612" width="120" height="106" as="geometry" />
        </mxCell>
        <mxCell id="d1zOp5WOyfaCxIi-WCaX-62" value="" style="aspect=fixed;perimeter=ellipsePerimeter;html=1;align=center;shadow=0;dashed=0;fontColor=default;labelBackgroundColor=none;fontSize=12;spacingTop=3;image;image=img/lib/ibm/blockchain/message_bus.svg;strokeColor=default;strokeWidth=2;fillColor=default;gradientColor=#081856;sketch=0;" vertex="1" parent="d1zOp5WOyfaCxIi-WCaX-61">
          <mxGeometry x="22" width="76" height="76" as="geometry" />
        </mxCell>
        <mxCell id="d1zOp5WOyfaCxIi-WCaX-63" value="&lt;span style=&quot;color: rgb(0, 0, 0);&quot;&gt;IBM omnichannel bus&lt;/span&gt;" style="text;html=1;strokeColor=none;fillColor=none;align=center;verticalAlign=middle;whiteSpace=wrap;rounded=0;labelBackgroundColor=none;sketch=0;strokeWidth=1;fontColor=#0050A1;" vertex="1" parent="d1zOp5WOyfaCxIi-WCaX-61">
          <mxGeometry y="76" width="120" height="30" as="geometry" />
        </mxCell>
        <mxCell id="d1zOp5WOyfaCxIi-WCaX-64" value="" style="ellipse;whiteSpace=wrap;html=1;aspect=fixed;labelBackgroundColor=none;sketch=0;strokeColor=none;strokeWidth=1;fontColor=#0050A1;fillColor=#FFFFFF;gradientColor=none;gradientDirection=south;" vertex="1" parent="1">
          <mxGeometry x="5863" y="1500" width="30" height="30" as="geometry" />
        </mxCell>
        <mxCell id="d1zOp5WOyfaCxIi-WCaX-65" value="" style="rounded=1;whiteSpace=wrap;html=1;fillColor=none;" vertex="1" parent="1">
          <mxGeometry x="5381" y="1580" width="129" height="140" as="geometry" />
        </mxCell>
        <mxCell id="d1zOp5WOyfaCxIi-WCaX-66" value="RED EXTERNA" style="rounded=1;whiteSpace=wrap;html=1;strokeColor=#36393d;strokeWidth=1;fillColor=#cce5ff;gradientDirection=south;verticalAlign=top;" vertex="1" parent="1">
          <mxGeometry x="4150" y="2368" width="1860" height="136" as="geometry" />
        </mxCell>
        <mxCell id="d1zOp5WOyfaCxIi-WCaX-67" value="BANCS APP" style="text;html=1;strokeColor=none;fillColor=none;align=center;verticalAlign=middle;whiteSpace=wrap;rounded=0;strokeWidth=1;fontColor=#081856;fontStyle=1" vertex="1" parent="1">
          <mxGeometry x="5621" y="1829.9999999999998" width="122" height="30" as="geometry" />
        </mxCell>
        <mxCell id="d1zOp5WOyfaCxIi-WCaX-68" style="edgeStyle=orthogonalEdgeStyle;rounded=0;orthogonalLoop=1;jettySize=auto;html=1;entryX=0.5;entryY=0;entryDx=0;entryDy=0;startArrow=classic;startFill=1;exitX=0.5;exitY=1;exitDx=0;exitDy=0;" edge="1" parent="1" source="d1zOp5WOyfaCxIi-WCaX-103" target="d1zOp5WOyfaCxIi-WCaX-69">
          <mxGeometry relative="1" as="geometry" />
        </mxCell>
        <mxCell id="d1zOp5WOyfaCxIi-WCaX-69" value="" style="ellipse;whiteSpace=wrap;html=1;aspect=fixed;fillColor=none;strokeColor=none;" vertex="1" parent="1">
          <mxGeometry x="5637" y="2394" width="80" height="80" as="geometry" />
        </mxCell>
        <mxCell id="d1zOp5WOyfaCxIi-WCaX-70" value="" style="group;strokeColor=none;" vertex="1" connectable="0" parent="1">
          <mxGeometry x="5791" y="2388" width="70" height="76" as="geometry" />
        </mxCell>
        <mxCell id="d1zOp5WOyfaCxIi-WCaX-71" value="" style="group;strokeColor=none;container=0;" vertex="1" connectable="0" parent="d1zOp5WOyfaCxIi-WCaX-70">
          <mxGeometry width="67.74193548387098" height="71.52941176470588" as="geometry" />
        </mxCell>
        <mxCell id="d1zOp5WOyfaCxIi-WCaX-72" value="CNB personas" style="verticalLabelPosition=bottom;verticalAlign=top;html=1;shape=mxgraph.basic.polygon;polyCoords=[[0.25,0],[0.75,0],[1,0.25],[1,0.75],[0.75,1],[0.25,1],[0,0.75],[0,0.25]];polyline=0;strokeColor=#081856;strokeWidth=2;fillColor=#FFFFFF;" vertex="1" parent="d1zOp5WOyfaCxIi-WCaX-70">
          <mxGeometry x="2.2580645161290325" y="4.470588235294118" width="67.74193548387098" height="71.52941176470588" as="geometry" />
        </mxCell>
        <mxCell id="d1zOp5WOyfaCxIi-WCaX-73" value="" style="rounded=0;whiteSpace=wrap;html=1;strokeColor=#081856;strokeWidth=2;fillColor=#081856;" vertex="1" parent="d1zOp5WOyfaCxIi-WCaX-70">
          <mxGeometry x="45.16129032258065" y="11.92156862745098" width="11.290322580645162" height="11.92156862745098" as="geometry" />
        </mxCell>
        <mxCell id="d1zOp5WOyfaCxIi-WCaX-74" value="" style="rounded=0;whiteSpace=wrap;html=1;strokeColor=#081856;strokeWidth=2;fillColor=#081856;" vertex="1" parent="d1zOp5WOyfaCxIi-WCaX-70">
          <mxGeometry x="45.16129032258065" y="29.80392156862745" width="11.290322580645162" height="11.92156862745098" as="geometry" />
        </mxCell>
        <mxCell id="d1zOp5WOyfaCxIi-WCaX-75" value="" style="rounded=0;whiteSpace=wrap;html=1;strokeColor=#081856;strokeWidth=2;fillColor=#081856;" vertex="1" parent="d1zOp5WOyfaCxIi-WCaX-70">
          <mxGeometry x="28.225806451612907" y="29.80392156862745" width="11.290322580645162" height="11.92156862745098" as="geometry" />
        </mxCell>
        <mxCell id="d1zOp5WOyfaCxIi-WCaX-76" value="" style="rounded=0;whiteSpace=wrap;html=1;strokeColor=#081856;strokeWidth=2;fillColor=#081856;" vertex="1" parent="d1zOp5WOyfaCxIi-WCaX-70">
          <mxGeometry x="11.290322580645162" y="29.80392156862745" width="11.290322580645162" height="11.92156862745098" as="geometry" />
        </mxCell>
        <mxCell id="d1zOp5WOyfaCxIi-WCaX-77" value="" style="rounded=0;whiteSpace=wrap;html=1;strokeColor=#081856;strokeWidth=2;fillColor=#081856;" vertex="1" parent="d1zOp5WOyfaCxIi-WCaX-70">
          <mxGeometry x="45.16129032258065" y="47.68627450980392" width="11.290322580645162" height="11.92156862745098" as="geometry" />
        </mxCell>
        <mxCell id="d1zOp5WOyfaCxIi-WCaX-78" value="" style="rounded=0;whiteSpace=wrap;html=1;strokeColor=#081856;strokeWidth=2;fillColor=#081856;" vertex="1" parent="d1zOp5WOyfaCxIi-WCaX-70">
          <mxGeometry x="28.225806451612907" y="47.68627450980392" width="11.290322580645162" height="11.92156862745098" as="geometry" />
        </mxCell>
        <mxCell id="d1zOp5WOyfaCxIi-WCaX-79" value="" style="rounded=0;whiteSpace=wrap;html=1;strokeColor=#081856;strokeWidth=2;fillColor=#081856;" vertex="1" parent="d1zOp5WOyfaCxIi-WCaX-70">
          <mxGeometry x="11.290322580645162" y="47.68627450980392" width="11.290322580645162" height="11.92156862745098" as="geometry" />
        </mxCell>
        <mxCell id="d1zOp5WOyfaCxIi-WCaX-80" value="" style="ellipse;whiteSpace=wrap;html=1;aspect=fixed;rounded=0;strokeColor=none;strokeWidth=1;fontSize=31;fillColor=none;" vertex="1" parent="d1zOp5WOyfaCxIi-WCaX-70">
          <mxGeometry x="21.159999999999854" y="4.4699999999998" width="24" height="24" as="geometry" />
        </mxCell>
        <mxCell id="d1zOp5WOyfaCxIi-WCaX-81" value="" style="group" vertex="1" connectable="0" parent="1">
          <mxGeometry x="5640" y="2390" width="70" height="76" as="geometry" />
        </mxCell>
        <mxCell id="d1zOp5WOyfaCxIi-WCaX-82" value="" style="group;strokeColor=none;container=0;" vertex="1" connectable="0" parent="d1zOp5WOyfaCxIi-WCaX-81">
          <mxGeometry width="67.74193548387098" height="71.52941176470588" as="geometry" />
        </mxCell>
        <mxCell id="d1zOp5WOyfaCxIi-WCaX-83" value="ATMs" style="verticalLabelPosition=bottom;verticalAlign=top;html=1;shape=mxgraph.basic.polygon;polyCoords=[[0.25,0],[0.75,0],[1,0.25],[1,0.75],[0.75,1],[0.25,1],[0,0.75],[0,0.25]];polyline=0;strokeColor=#081856;strokeWidth=2;fillColor=#FFFFFF;" vertex="1" parent="d1zOp5WOyfaCxIi-WCaX-81">
          <mxGeometry x="2.2580645161290325" y="4.470588235294118" width="67.74193548387098" height="71.52941176470588" as="geometry" />
        </mxCell>
        <mxCell id="d1zOp5WOyfaCxIi-WCaX-84" value="" style="rounded=0;whiteSpace=wrap;html=1;strokeColor=#081856;strokeWidth=2;fillColor=#081856;" vertex="1" parent="d1zOp5WOyfaCxIi-WCaX-81">
          <mxGeometry x="45.16129032258065" y="11.92156862745098" width="11.290322580645162" height="11.92156862745098" as="geometry" />
        </mxCell>
        <mxCell id="d1zOp5WOyfaCxIi-WCaX-85" value="" style="rounded=0;whiteSpace=wrap;html=1;strokeColor=#081856;strokeWidth=2;fillColor=#081856;" vertex="1" parent="d1zOp5WOyfaCxIi-WCaX-81">
          <mxGeometry x="45.16129032258065" y="29.80392156862745" width="11.290322580645162" height="11.92156862745098" as="geometry" />
        </mxCell>
        <mxCell id="d1zOp5WOyfaCxIi-WCaX-86" value="" style="rounded=0;whiteSpace=wrap;html=1;strokeColor=#081856;strokeWidth=2;fillColor=#081856;" vertex="1" parent="d1zOp5WOyfaCxIi-WCaX-81">
          <mxGeometry x="28.225806451612907" y="29.80392156862745" width="11.290322580645162" height="11.92156862745098" as="geometry" />
        </mxCell>
        <mxCell id="d1zOp5WOyfaCxIi-WCaX-87" value="" style="rounded=0;whiteSpace=wrap;html=1;strokeColor=#081856;strokeWidth=2;fillColor=#081856;" vertex="1" parent="d1zOp5WOyfaCxIi-WCaX-81">
          <mxGeometry x="11.290322580645162" y="29.80392156862745" width="11.290322580645162" height="11.92156862745098" as="geometry" />
        </mxCell>
        <mxCell id="d1zOp5WOyfaCxIi-WCaX-88" value="" style="rounded=0;whiteSpace=wrap;html=1;strokeColor=#081856;strokeWidth=2;fillColor=#081856;" vertex="1" parent="d1zOp5WOyfaCxIi-WCaX-81">
          <mxGeometry x="45.16129032258065" y="47.68627450980392" width="11.290322580645162" height="11.92156862745098" as="geometry" />
        </mxCell>
        <mxCell id="d1zOp5WOyfaCxIi-WCaX-89" value="" style="rounded=0;whiteSpace=wrap;html=1;strokeColor=#081856;strokeWidth=2;fillColor=#081856;" vertex="1" parent="d1zOp5WOyfaCxIi-WCaX-81">
          <mxGeometry x="28.225806451612907" y="47.68627450980392" width="11.290322580645162" height="11.92156862745098" as="geometry" />
        </mxCell>
        <mxCell id="d1zOp5WOyfaCxIi-WCaX-90" value="" style="rounded=0;whiteSpace=wrap;html=1;strokeColor=#081856;strokeWidth=2;fillColor=#081856;" vertex="1" parent="d1zOp5WOyfaCxIi-WCaX-81">
          <mxGeometry x="11.290322580645162" y="47.68627450980392" width="11.290322580645162" height="11.92156862745098" as="geometry" />
        </mxCell>
        <mxCell id="d1zOp5WOyfaCxIi-WCaX-91" value="CANALES" style="shape=step;perimeter=stepPerimeter;whiteSpace=wrap;html=1;fixedSize=1;fillColor=#fff2cc;strokeColor=#d6b656;" vertex="1" parent="1">
          <mxGeometry x="3930" y="771" width="180" height="80" as="geometry" />
        </mxCell>
        <mxCell id="d1zOp5WOyfaCxIi-WCaX-92" value="APLICACION NUBE" style="shape=step;perimeter=stepPerimeter;whiteSpace=wrap;html=1;fixedSize=1;fillColor=#fff2cc;strokeColor=#d6b656;" vertex="1" parent="1">
          <mxGeometry x="3930" y="910.9000000000001" width="180" height="80" as="geometry" />
        </mxCell>
        <mxCell id="d1zOp5WOyfaCxIi-WCaX-93" value="APLICACION BANCO E INTEGRACIÓN" style="shape=step;perimeter=stepPerimeter;whiteSpace=wrap;html=1;fixedSize=1;fillColor=#fff2cc;strokeColor=#d6b656;" vertex="1" parent="1">
          <mxGeometry x="3930" y="1110.17" width="180" height="80" as="geometry" />
        </mxCell>
        <mxCell id="d1zOp5WOyfaCxIi-WCaX-94" value="BACKEND" style="shape=step;perimeter=stepPerimeter;whiteSpace=wrap;html=1;fixedSize=1;fillColor=#fff2cc;strokeColor=#d6b656;" vertex="1" parent="1">
          <mxGeometry x="3930" y="1460" width="180" height="80" as="geometry" />
        </mxCell>
        <mxCell id="d1zOp5WOyfaCxIi-WCaX-95" value="CANALES" style="shape=step;perimeter=stepPerimeter;whiteSpace=wrap;html=1;fixedSize=1;fillColor=#fff2cc;strokeColor=#d6b656;" vertex="1" parent="1">
          <mxGeometry x="3930" y="2388" width="180" height="80" as="geometry" />
        </mxCell>
        <mxCell id="d1zOp5WOyfaCxIi-WCaX-96" value="TCP/IP" style="text;html=1;strokeColor=default;fillColor=none;align=center;verticalAlign=middle;whiteSpace=wrap;rounded=0;strokeWidth=1;" vertex="1" parent="1">
          <mxGeometry x="5641" y="1770" width="60" height="30" as="geometry" />
        </mxCell>
        <mxCell id="d1zOp5WOyfaCxIi-WCaX-97" style="edgeStyle=orthogonalEdgeStyle;rounded=0;orthogonalLoop=1;jettySize=auto;html=1;exitX=0.5;exitY=1;exitDx=0;exitDy=0;" edge="1" parent="1" source="d1zOp5WOyfaCxIi-WCaX-14">
          <mxGeometry relative="1" as="geometry">
            <mxPoint x="5681" y="1740" as="sourcePoint" />
            <mxPoint x="5671" y="1770" as="targetPoint" />
            <Array as="points">
              <mxPoint x="5671" y="1735" />
            </Array>
          </mxGeometry>
        </mxCell>
        <mxCell id="d1zOp5WOyfaCxIi-WCaX-98" style="edgeStyle=orthogonalEdgeStyle;rounded=0;orthogonalLoop=1;jettySize=auto;html=1;startArrow=classic;startFill=1;" edge="1" parent="1" source="d1zOp5WOyfaCxIi-WCaX-99" target="d1zOp5WOyfaCxIi-WCaX-3">
          <mxGeometry relative="1" as="geometry" />
        </mxCell>
        <mxCell id="d1zOp5WOyfaCxIi-WCaX-99" value="Capa de acceso a datos&amp;nbsp; servidor federado" style="rounded=1;whiteSpace=wrap;html=1;strokeColor=#A50040;strokeWidth=1;fillColor=#d80073;fontColor=#ffffff;" vertex="1" parent="1">
          <mxGeometry x="4238" y="1931" width="1170" height="79" as="geometry" />
        </mxCell>
        <mxCell id="d1zOp5WOyfaCxIi-WCaX-100" value="" style="group" vertex="1" connectable="0" parent="1">
          <mxGeometry x="5553" y="1875" width="246.7199999999998" height="190" as="geometry" />
        </mxCell>
        <mxCell id="d1zOp5WOyfaCxIi-WCaX-101" value="" style="rounded=1;whiteSpace=wrap;html=1;strokeColor=#081856;strokeWidth=1;fontColor=#081856;fillColor=none;gradientColor=none;gradientDirection=south;" vertex="1" parent="d1zOp5WOyfaCxIi-WCaX-100">
          <mxGeometry width="246.72" height="190" as="geometry" />
        </mxCell>
        <mxCell id="d1zOp5WOyfaCxIi-WCaX-102" value="Capa app &lt;br&gt;(transaction)" style="sketch=0;pointerEvents=1;shadow=0;dashed=0;html=1;strokeColor=none;fillColor=#505050;labelPosition=center;verticalLabelPosition=bottom;verticalAlign=top;outlineConnect=0;align=center;shape=mxgraph.office.concepts.app_part;strokeWidth=2;fontColor=#081856;" vertex="1" parent="d1zOp5WOyfaCxIi-WCaX-100">
          <mxGeometry x="74.73999999999978" y="5.467391304347757" width="99.99999999999999" height="97.82608695652173" as="geometry" />
        </mxCell>
        <mxCell id="d1zOp5WOyfaCxIi-WCaX-103" value="TCP/IP" style="text;html=1;strokeColor=default;fillColor=none;align=center;verticalAlign=middle;whiteSpace=wrap;rounded=0;strokeWidth=1;" vertex="1" parent="d1zOp5WOyfaCxIi-WCaX-100">
          <mxGeometry x="94.74000000000024" y="150.70334928229659" width="60" height="32.29665071770335" as="geometry" />
        </mxCell>
        <mxCell id="d1zOp5WOyfaCxIi-WCaX-104" value="" style="group;strokeColor=#FFFFFF;fontColor=#FFFFFF;" vertex="1" connectable="0" parent="1">
          <mxGeometry x="4270" y="1937" width="420" height="50" as="geometry" />
        </mxCell>
        <mxCell id="d1zOp5WOyfaCxIi-WCaX-105" value="" style="rounded=1;whiteSpace=wrap;html=1;strokeColor=#FFFFFF;strokeWidth=1;fillColor=none;fontColor=#FFFFFF;" vertex="1" parent="d1zOp5WOyfaCxIi-WCaX-104">
          <mxGeometry width="420" height="50" as="geometry" />
        </mxCell>
        <mxCell id="d1zOp5WOyfaCxIi-WCaX-106" value="JDBC" style="text;html=1;strokeColor=#FFFFFF;fillColor=none;align=center;verticalAlign=middle;whiteSpace=wrap;rounded=0;strokeWidth=1;fontColor=#FFFFFF;" vertex="1" parent="d1zOp5WOyfaCxIi-WCaX-104">
          <mxGeometry x="100" y="10" width="60" height="30" as="geometry" />
        </mxCell>
        <mxCell id="d1zOp5WOyfaCxIi-WCaX-107" value="ODBC" style="text;html=1;strokeColor=#FFFFFF;fillColor=none;align=center;verticalAlign=middle;whiteSpace=wrap;rounded=0;strokeWidth=1;fontColor=#FFFFFF;" vertex="1" parent="d1zOp5WOyfaCxIi-WCaX-104">
          <mxGeometry x="20" y="10" width="60" height="30" as="geometry" />
        </mxCell>
        <mxCell id="d1zOp5WOyfaCxIi-WCaX-108" value="PL/SQL" style="text;html=1;strokeColor=#FFFFFF;fillColor=none;align=center;verticalAlign=middle;whiteSpace=wrap;rounded=0;strokeWidth=1;fontColor=#FFFFFF;" vertex="1" parent="d1zOp5WOyfaCxIi-WCaX-104">
          <mxGeometry x="180" y="10" width="60" height="30" as="geometry" />
        </mxCell>
        <mxCell id="d1zOp5WOyfaCxIi-WCaX-109" value="JDBC" style="text;html=1;strokeColor=#FFFFFF;fillColor=none;align=center;verticalAlign=middle;whiteSpace=wrap;rounded=0;strokeWidth=1;fontColor=#FFFFFF;" vertex="1" parent="d1zOp5WOyfaCxIi-WCaX-104">
          <mxGeometry x="260" y="10" width="60" height="30" as="geometry" />
        </mxCell>
        <mxCell id="d1zOp5WOyfaCxIi-WCaX-110" value="JDBC" style="text;html=1;strokeColor=#FFFFFF;fillColor=none;align=center;verticalAlign=middle;whiteSpace=wrap;rounded=0;strokeWidth=1;fontColor=#FFFFFF;" vertex="1" parent="d1zOp5WOyfaCxIi-WCaX-104">
          <mxGeometry x="340" y="10" width="60" height="30" as="geometry" />
        </mxCell>
        <mxCell id="d1zOp5WOyfaCxIi-WCaX-111" value="" style="group" vertex="1" connectable="0" parent="1">
          <mxGeometry x="4700" y="2100" width="120" height="160" as="geometry" />
        </mxCell>
        <mxCell id="d1zOp5WOyfaCxIi-WCaX-112" value="BDD Package" style="text;html=1;strokeColor=none;fillColor=none;align=center;verticalAlign=middle;whiteSpace=wrap;rounded=0;strokeWidth=2;fontColor=#081856;" vertex="1" parent="d1zOp5WOyfaCxIi-WCaX-111">
          <mxGeometry x="29" y="130" width="60" height="30" as="geometry" />
        </mxCell>
        <mxCell id="d1zOp5WOyfaCxIi-WCaX-113" value="" style="verticalLabelPosition=bottom;verticalAlign=top;html=1;shape=mxgraph.basic.polygon;polyCoords=[[0.25,0],[0.75,0],[1,0.25],[1,0.75],[0.75,1],[0.25,1],[0,0.75],[0,0.25]];polyline=0;strokeColor=#081856;strokeWidth=2;fontColor=#081856;fillColor=default;gradientColor=#FFFFFF;" vertex="1" parent="d1zOp5WOyfaCxIi-WCaX-111">
          <mxGeometry width="120" height="120" as="geometry" />
        </mxCell>
        <mxCell id="d1zOp5WOyfaCxIi-WCaX-114" value="" style="verticalLabelPosition=bottom;html=1;verticalAlign=top;align=center;strokeColor=none;fillColor=#081856;shape=mxgraph.azure.cloud_service_package_file;strokeWidth=2;fontColor=#081856;" vertex="1" parent="d1zOp5WOyfaCxIi-WCaX-111">
          <mxGeometry x="29.256000000000085" y="24" width="61.5" height="72" as="geometry" />
        </mxCell>
        <mxCell id="d1zOp5WOyfaCxIi-WCaX-115" value="" style="edgeStyle=orthogonalEdgeStyle;rounded=0;orthogonalLoop=1;jettySize=auto;html=1;fontSize=31;startArrow=classic;startFill=1;" edge="1" parent="1" source="d1zOp5WOyfaCxIi-WCaX-116" target="d1zOp5WOyfaCxIi-WCaX-119">
          <mxGeometry relative="1" as="geometry" />
        </mxCell>
        <mxCell id="d1zOp5WOyfaCxIi-WCaX-116" value="&lt;font style=&quot;font-size: 31px;&quot;&gt;1&lt;/font&gt;" style="ellipse;whiteSpace=wrap;html=1;aspect=fixed;rounded=0;strokeColor=#A50040;strokeWidth=1;fillColor=#d80073;fontColor=#ffffff;" vertex="1" parent="1">
          <mxGeometry x="4150" y="1921" width="80" height="80" as="geometry" />
        </mxCell>
        <mxCell id="d1zOp5WOyfaCxIi-WCaX-117" style="edgeStyle=orthogonalEdgeStyle;rounded=0;orthogonalLoop=1;jettySize=auto;html=1;entryX=0.5;entryY=0;entryDx=0;entryDy=0;fontSize=31;startArrow=classic;startFill=1;" edge="1" parent="1" source="d1zOp5WOyfaCxIi-WCaX-118" target="d1zOp5WOyfaCxIi-WCaX-80">
          <mxGeometry relative="1" as="geometry" />
        </mxCell>
        <mxCell id="d1zOp5WOyfaCxIi-WCaX-118" value="" style="ellipse;whiteSpace=wrap;html=1;aspect=fixed;rounded=0;strokeColor=none;strokeWidth=1;fontSize=31;fillColor=none;" vertex="1" parent="1">
          <mxGeometry x="5810" y="1704.7" width="30" height="30" as="geometry" />
        </mxCell>
        <mxCell id="d1zOp5WOyfaCxIi-WCaX-119" value="-monitoreo&lt;br&gt;información&lt;br&gt;-servicios&lt;br&gt;&lt;br&gt;-registro de servicios y aplicaciones&lt;br&gt;&lt;br&gt;-componente modular&lt;br&gt;&lt;br&gt;-Minimiza riesgo de obsolescencia" style="whiteSpace=wrap;html=1;fillColor=#d80073;strokeColor=#A50040;fontColor=#ffffff;rounded=0;strokeWidth=1;" vertex="1" parent="1">
          <mxGeometry x="3950" y="1881.5" width="120" height="159" as="geometry" />
        </mxCell>
        <mxCell id="d1zOp5WOyfaCxIi-WCaX-120" value="un solo componente modular" style="whiteSpace=wrap;html=1;fillColor=#d80073;strokeColor=#A50040;fontColor=#ffffff;rounded=0;strokeWidth=1;" vertex="1" parent="1">
          <mxGeometry x="3950" y="2056" width="120" height="49" as="geometry" />
        </mxCell>
        <mxCell id="d1zOp5WOyfaCxIi-WCaX-121" value="aumentar la cohesion desde la consulta&amp;nbsp;" style="whiteSpace=wrap;html=1;fillColor=#d80073;strokeColor=#A50040;fontColor=#ffffff;rounded=0;strokeWidth=1;" vertex="1" parent="1">
          <mxGeometry x="3950" y="2120" width="120" height="49" as="geometry" />
        </mxCell>
        <mxCell id="d1zOp5WOyfaCxIi-WCaX-122" value="Patron de diseño gateway - facade" style="whiteSpace=wrap;html=1;fillColor=#d80073;strokeColor=#A50040;fontColor=#ffffff;rounded=0;strokeWidth=1;" vertex="1" parent="1">
          <mxGeometry x="3950" y="2180" width="120" height="49" as="geometry" />
        </mxCell>
        <mxCell id="d1zOp5WOyfaCxIi-WCaX-123" value="" style="verticalLabelPosition=bottom;sketch=0;aspect=fixed;html=1;verticalAlign=top;strokeColor=none;align=center;outlineConnect=0;shape=mxgraph.citrix.database_server;fontColor=#FFFFFF;" vertex="1" parent="1">
          <mxGeometry x="4980" y="1944.75" width="50" height="56.25" as="geometry" />
        </mxCell>
      </root>
    </mxGraphModel>
  </diagram>
</mxfile>
